<?xml version="1.0" encoding="UTF-8" standalone="no"?>
<!-- Created with Inkscape (http://www.inkscape.org/) -->

<svg
   xmlns:dc="http://purl.org/dc/elements/1.1/"
   xmlns:cc="http://creativecommons.org/ns#"
   xmlns:rdf="http://www.w3.org/1999/02/22-rdf-syntax-ns#"
   xmlns:svg="http://www.w3.org/2000/svg"
   xmlns="http://www.w3.org/2000/svg"
   xmlns:sodipodi="http://sodipodi.sourceforge.net/DTD/sodipodi-0.dtd"
   xmlns:inkscape="http://www.inkscape.org/namespaces/inkscape"
   width="69.362854mm"
   height="70.022758mm"
   viewBox="0 0 69.362854 70.022758"
   version="1.1"
   id="svg8"
   inkscape:version="0.92.4 (5da689c313, 2019-01-14)"
   sodipodi:docname="Symbol1.svg">
  <defs
     id="defs2" />
  <sodipodi:namedview
     id="base"
     pagecolor="#ffffff"
     bordercolor="#666666"
     borderopacity="1.0"
     inkscape:pageopacity="0.0"
     inkscape:pageshadow="2"
     inkscape:zoom="1.4"
     inkscape:cx="102.87776"
     inkscape:cy="46.622849"
     inkscape:document-units="mm"
     inkscape:current-layer="layer1"
     showgrid="false"
     inkscape:window-width="1920"
     inkscape:window-height="1017"
     inkscape:window-x="-8"
     inkscape:window-y="-8"
     inkscape:window-maximized="1"
     fit-margin-top="0"
     fit-margin-left="0"
     fit-margin-right="0"
     fit-margin-bottom="0" />
  <metadata
     id="metadata5">
    <rdf:RDF>
      <cc:Work
         rdf:about="">
        <dc:format>image/svg+xml</dc:format>
        <dc:type
           rdf:resource="http://purl.org/dc/dcmitype/StillImage" />
        <dc:title></dc:title>
      </cc:Work>
    </rdf:RDF>
  </metadata>
  <g
     inkscape:label="Layer 1"
     inkscape:groupmode="layer"
     id="layer1"
     transform="translate(-71.448088,-151.0457)">
    <path
       style="fill:#000000;stroke-width:0.26458332"
       d="m 101.7125,220.95129 c -0.0931,-0.0931 -0.16919,-0.62722 -0.16919,-1.18702 0,-0.55981 -0.14312,-1.24699 -0.31803,-1.52708 -0.37907,-0.60698 0.12043,-1.7834 0.81932,-1.92963 0.30721,-0.0643 0.26,-0.13398 -0.17056,-0.25185 -0.41242,-0.1129 -0.59532,-0.0486 -0.59532,0.20914 0,0.21333 -0.26316,0.37211 -0.61675,0.37211 -0.82659,0 -1.40398,1.04257 -0.99775,1.80161 0.37703,0.7045 0.37036,1.1088 -0.0183,1.1088 -0.17045,0 -0.52763,0.19705 -0.79375,0.43789 -0.45409,0.41094 -0.48385,0.40385 -0.48385,-0.11517 0,-0.39039 -0.26856,-0.65016 -0.91315,-0.88325 -0.65942,-0.23845 -0.94247,-0.51889 -1.01869,-1.00931 -0.0892,-0.57368 -0.1117,-0.54561 -0.14519,0.18078 -0.0336,0.72966 -0.13957,0.8599 -0.69944,0.8599 -0.50746,0 -0.64139,-0.12061 -0.58008,-0.52235 0.0438,-0.28729 0.16216,-0.60479 0.26292,-0.70556 0.42105,-0.42105 0.14266,-0.66949 -0.30064,-0.26831 -0.5402,0.48887 -1.10365,0.57735 -1.10365,0.1733 0,-0.14552 -0.17562,-0.26458 -0.39026,-0.26458 -0.29732,0 -0.35147,-0.20478 -0.22735,-0.8599 0.0896,-0.47294 0.27546,-1.00351 0.41304,-1.17904 0.13757,-0.17552 0.17784,-0.4361 0.0895,-0.57904 -0.0884,-0.14296 0.0389,-0.37156 0.28268,-0.50801 0.26322,-0.1473 0.37766,-0.41919 0.2817,-0.66924 -0.26553,-0.69196 0.38182,-0.8255 0.86923,-0.17933 0.41168,0.54577 0.46824,0.55764 0.63138,0.13248 0.22423,-0.58433 0.24227,-0.56982 -0.99598,-0.80116 -0.70751,-0.13218 -0.9756,-0.10379 -0.85547,0.0906 0.18698,0.30254 -0.78964,1.11305 -1.34117,1.11305 -0.18216,0 -0.51592,-0.35718 -0.74167,-0.79375 -0.22576,-0.43656 -0.56525,-0.79375 -0.75442,-0.79375 -0.57094,0 -1.56069,-1.24963 -1.56069,-1.97048 0,-0.52987 -0.13213,-0.67535 -0.61338,-0.67535 -0.33736,0 -0.7918,-0.25473 -1.00987,-0.56607 -0.32962,-0.47059 -0.57758,-0.54178 -1.47021,-0.42205 -1.19116,0.15977 -1.33696,-0.0716 -0.54456,-0.86396 0.88884,-0.88884 0.608,-1.23303 -0.89516,-1.09713 -1.07488,0.0972 -1.68232,-1.26453 -0.78748,-1.7653 0.58947,-0.32989 0.21839,-0.84174 -0.61024,-0.84174 -0.48301,0 -0.63203,-0.10976 -0.52559,-0.38714 0.16556,-0.43144 -0.98005,-1.46494 -1.62384,-1.46494 -0.34687,0 -0.34196,-0.0666 0.0357,-0.48386 0.58587,-0.64737 0.55174,-1.01215 -0.11092,-1.18544 -0.34087,-0.0891 -0.74185,0.0495 -1.05833,0.36602 -0.68967,0.68967 -1.39295,0.67969 -1.17195,-0.0166 0.11815,-0.37226 -0.0478,-0.72519 -0.56722,-1.20661 -0.60661,-0.56219 -0.66703,-0.72296 -0.34761,-0.925 0.55693,-0.35226 2.47379,-0.3086 2.84725,0.0649 0.17462,0.17463 0.3175,0.53182 0.3175,0.79375 0,0.30793 0.19703,0.47625 0.55747,0.47625 0.35739,0 0.50862,0.12732 0.42135,0.35473 -0.0749,0.19509 -0.0182,0.52252 0.1259,0.7276 0.18314,0.26062 0.21802,0.0543 0.11586,-0.68545 -0.0845,-0.61213 -0.37692,-1.247 -0.69349,-1.50581 -0.6386,-0.52211 -0.98476,-2.33066 -0.4461,-2.33066 0.18829,0 0.49323,0.14883 0.67765,0.33073 0.26865,0.26498 0.40332,0.23868 0.6774,-0.1323 0.45537,-0.61636 0.63733,-0.58701 1.38901,0.22407 0.43549,0.46991 0.55552,0.78501 0.3797,0.99685 -0.35607,0.42905 0.56423,1.62434 1.09409,1.42101 0.50441,-0.19356 1.00726,0.84382 0.82262,1.69707 l -0.13458,0.62194 0.57957,-0.66146 c 0.31876,-0.3638 0.78583,-0.62729 1.03793,-0.58554 0.25209,0.0418 0.61023,-0.10707 0.79584,-0.33073 0.36562,-0.44054 1.47446,-0.55214 1.70937,-0.17204 0.22258,0.36013 -0.52137,0.85377 -1.00627,0.66769 -0.23775,-0.0912 -0.43041,-0.0341 -0.43041,0.12773 0,0.16109 -0.17859,0.29289 -0.39687,0.29289 -0.47692,0 -0.49838,0.2815 -0.0898,1.17818 0.16888,0.37065 0.52606,0.67391 0.79375,0.67391 0.48774,0 0.59181,-0.24056 0.49657,-1.14785 -0.0362,-0.34479 0.0897,-0.45575 0.43256,-0.38116 0.48877,0.10635 0.5234,0.26205 0.22724,1.02189 -0.12713,0.32617 0.015,0.41892 0.64186,0.41892 0.85379,0 0.98414,-0.15613 0.51883,-0.62144 -0.37872,-0.37871 0.27744,-1.46705 0.77042,-1.27787 0.1941,0.0745 0.55266,0.13542 0.79679,0.13542 0.7162,0 1.17454,0.94628 0.77185,1.59357 -0.18313,0.29437 -0.51156,0.49876 -0.72984,0.4542 -0.21828,-0.0446 -0.60524,0.25324 -0.8599,0.66179 -0.61515,0.98687 -0.58925,1.08043 0.25442,0.91915 0.48097,-0.0919 0.82703,0.007 1.04992,0.29989 0.30461,0.40039 0.33318,0.40093 0.34089,0.006 0.0193,-0.98617 1.59592,-1.27218 1.59592,-0.2895 0,0.22763 0.19604,0.6305 0.43565,0.89527 0.41327,0.45665 0.45507,0.45773 0.81339,0.0208 0.34603,-0.4219 0.36609,-0.40504 0.23896,0.2009 -0.12477,0.59474 -0.10379,0.61476 0.20797,0.19844 0.19071,-0.25466 0.41017,-0.46302 0.4877,-0.46302 0.31336,0 0.45263,0.88331 0.18929,1.2006 -0.19609,0.23629 -0.19748,0.39202 -0.005,0.51125 0.77773,0.48066 1.11026,-0.93777 0.40305,-1.71923 -0.36213,-0.40015 -0.36006,-0.482 0.0202,-0.79757 0.35418,-0.29394 0.46338,-0.28931 0.66536,0.0282 0.1329,0.20893 0.18745,0.52775 0.12123,0.70851 -0.0662,0.18075 0.24123,0.51565 0.68324,0.74422 0.93751,0.48481 1.58961,0.15816 1.36892,-0.68572 -0.16035,-0.61321 0.25249,-0.68544 0.71722,-0.12548 0.17983,0.21668 0.43253,0.32872 0.56156,0.24897 0.12904,-0.0797 0.23461,0.0406 0.23461,0.2675 0,0.44715 0.70663,0.54339 1.28756,0.17535 0.24142,-0.15294 0.327,-0.59109 0.25759,-1.31886 -0.064,-0.67111 0.006,-1.08983 0.18322,-1.08983 0.63904,0 1.15999,0.7198 1.24467,1.71979 l 0.0896,1.05833 0.3142,-0.7276 c 0.34392,-0.79641 0.85647,-0.97739 0.85647,-0.30241 0,0.28026 0.14365,0.37005 0.42145,0.26345 0.2318,-0.089 0.70048,-0.23176 1.04152,-0.31735 0.54816,-0.13758 0.58635,-0.22961 0.32931,-0.79374 -0.3229,-0.7087 -0.0487,-1.23962 0.32655,-0.63238 0.15104,0.24439 0.63306,0.3747 1.31946,0.3567 0.84849,-0.0222 1.07257,0.0642 1.04009,0.40103 -0.0814,0.84433 0.0278,1.01804 0.61484,0.97786 0.32743,-0.0224 0.56394,-0.18957 0.5256,-0.37146 -0.0383,-0.1819 0.0788,-0.5938 0.26039,-0.91533 0.31336,-0.55491 0.33705,-0.53192 0.4666,0.45306 0.15787,1.20029 0.73969,1.6134 0.69504,0.4935 -0.0246,-0.61801 0.0777,-0.7374 0.63206,-0.7374 0.3638,0 0.80012,-0.09 0.96959,-0.20009 0.1701,-0.11045 0.3602,-0.0512 0.42437,0.13229 0.0842,0.24084 0.2711,0.19494 0.67854,-0.16665 0.55099,-0.489 0.56558,-0.489 0.72491,0 0.73437,2.25372 0.97301,2.41191 1.55117,1.0282 0.38982,-0.93298 0.86882,-1.15907 1.37764,-0.65025 0.34823,0.34824 1.00913,-0.37319 0.81215,-0.88653 -0.0995,-0.25933 -0.56284,-0.32198 -1.74751,-0.23629 -1.65788,0.11992 -3.15947,-0.43391 -2.79136,-1.02953 0.10578,-0.17114 0.30441,-0.14951 0.55776,0.0608 0.31319,0.25992 0.43662,0.25678 0.60484,-0.0154 0.14883,-0.24082 0.26487,-0.25535 0.39232,-0.0491 0.0995,0.16105 0.32278,0.28904 0.49609,0.28441 0.17332,-0.005 0.077,-0.19162 -0.21405,-0.41555 -0.29104,-0.22392 -0.50292,-0.50722 -0.47085,-0.62955 0.0321,-0.12233 -0.38043,-0.10128 -0.91667,0.0468 -0.69514,0.19193 -1.00299,0.18519 -1.07255,-0.0235 -0.0537,-0.16098 -0.26624,-0.29269 -0.47239,-0.29269 -0.50824,0 -0.47378,-0.53077 0.0598,-0.92093 0.37728,-0.27588 0.2229,-0.44642 -1.17027,-1.29272 -0.88269,-0.53621 -1.70335,-0.95777 -1.82369,-0.9368 -0.71588,0.12472 -2.46776,-0.0627 -2.46776,-0.26396 0,-0.13167 0.47625,-0.17553 1.05834,-0.0975 1.05981,0.14215 1.43832,-0.20133 0.70765,-0.64218 -0.19288,-0.11637 -0.42726,-0.41994 -0.52086,-0.67461 -0.0936,-0.25466 -0.35251,-0.46302 -0.57536,-0.46302 -0.22285,0 -0.40518,-0.16585 -0.40518,-0.36856 0,-0.20272 -0.1786,-0.4371 -0.39688,-0.52087 -0.21828,-0.0838 -0.39687,-0.0597 -0.39687,0.0534 0,0.11314 -0.18832,0.43682 -0.41848,0.7193 -0.35731,0.43853 -0.39719,0.44592 -0.27288,0.0506 0.16685,-0.53064 -0.11679,-0.60737 -0.56997,-0.1542 -0.23538,0.23538 -0.34794,0.20688 -0.47332,-0.11984 -0.13392,-0.34899 -0.25724,-0.37074 -0.66353,-0.11701 -0.38544,0.24071 -0.5728,0.23788 -0.82314,-0.0125 -0.17825,-0.17825 -0.5325,-0.3241 -0.7872,-0.3241 -0.25471,0 -0.59377,-0.20836 -0.75347,-0.46302 -0.2574,-0.41045 -0.27334,-0.40002 -0.14043,0.0919 0.12719,0.47075 0.0293,0.55833 -0.64563,0.57752 -0.48825,0.0139 -0.89213,-0.14937 -1.04555,-0.42261 -0.23251,-0.41412 -0.26245,-0.41288 -0.42838,0.0178 -0.25126,0.65215 -0.64513,0.57571 -0.68163,-0.13229 -0.0231,-0.44799 -0.0606,-0.48073 -0.15169,-0.13229 -0.14116,0.54017 -0.50009,0.60585 -0.72283,0.13229 -0.0856,-0.1819 -0.11199,-0.003 -0.0587,0.39687 0.13074,0.98251 -0.0915,0.90293 -0.95176,-0.34077 -0.3988,-0.57655 -0.83084,-1.04828 -0.96009,-1.04828 -0.12925,0 -0.38132,0.35324 -0.56015,0.78497 -0.37051,0.8945 -1.06197,1.59907 -1.06197,1.08211 0,-0.1729 0.11985,-0.53831 0.26634,-0.81202 0.20487,-0.3828 0.15907,-0.5655 -0.19844,-0.79171 -0.32424,-0.20515 -0.36692,-0.33538 -0.14114,-0.43068 0.19389,-0.0818 -0.2642,-0.65102 -1.14267,-1.41975 -1.36304,-1.19276 -1.52233,-1.2636 -2.26191,-1.00578 -0.99944,0.34841 -1.56462,-0.0583 -1.00988,-0.72674 0.30339,-0.36557 0.29965,-0.42321 -0.0244,-0.37674 -0.81337,0.11663 -1.0441,-0.0313 -1.0441,-0.66929 0,-0.47548 0.14258,-0.66146 0.50711,-0.66146 0.27892,0 0.56027,0.14883 0.62524,0.33073 0.065,0.1819 0.19176,0.26346 0.28178,0.18125 0.09,-0.0822 -0.42474,-0.84538 -1.1439,-1.69591 -1.25234,-1.48114 -1.4902,-2.13801 -0.65864,-1.81891 0.21362,0.082 0.38841,0.26994 0.38841,0.41771 0,0.15487 0.16811,0.12915 0.39687,-0.0607 0.21828,-0.18116 0.39688,-0.41997 0.39688,-0.5307 0,-0.20657 -0.88363,-0.55356 -1.58318,-0.62169 -0.56776,-0.0553 -0.63559,-0.8373 -0.15601,-1.79864 0.22895,-0.45894 0.41627,-0.87567 0.41627,-0.92608 0,-0.23006 -0.76005,-0.0605 -0.8429,0.18809 -0.11064,0.33194 -1.00918,0.0418 -1.00918,-0.32587 0,-0.13976 0.23812,-0.17852 0.52916,-0.0862 0.5462,0.17336 0.66603,-0.0368 0.32585,-0.57139 -0.18384,-0.28893 -1.6548,-0.37383 -1.56046,-0.0901 0.0546,0.1642 -0.22985,0.26458 -0.74976,0.26458 -0.21828,0 -0.39688,-0.1318 -0.39688,-0.29289 0,-0.16286 0.19281,-0.2189 0.4343,-0.12623 0.32457,0.12455 0.36721,0.0816 0.16878,-0.17013 -0.48106,-0.61016 -0.60291,-1.69109 -0.24571,-2.17959 0.29928,-0.40929 0.43244,-0.42707 0.98649,-0.13175 0.58386,0.31119 0.60857,0.30266 0.27932,-0.0965 -0.31494,-0.38179 -0.25656,-0.53562 0.45586,-1.20112 l 0.81707,-0.76325 -0.65398,-0.76043 c -0.88674,-1.03107 -0.82407,-1.31399 0.13912,-0.62814 0.43656,0.31086 0.79375,0.73569 0.79375,0.94406 0,0.45108 0.13242,0.46821 0.81115,0.10497 0.66403,-0.35538 0.65013,-0.70487 -0.0367,-0.92287 -0.52294,-0.16597 -0.52713,-0.19769 -0.0898,-0.68091 0.25227,-0.27875 0.39699,-0.5685 0.3216,-0.64389 -0.0754,-0.0754 -0.28767,0.0444 -0.47174,0.26621 -0.47945,0.5777 -0.86939,0.49989 -0.54378,-0.1085 0.36117,-0.67487 0.35014,-1.36657 -0.0119,-0.745 -0.14833,0.25466 -0.38284,0.46302 -0.52113,0.46302 -0.47675,0 -0.24923,-0.57207 0.54232,-1.36362 0.72361,-0.72362 0.93451,-0.6792 0.82125,0.17299 -0.0193,0.14552 0.14332,0.036 0.36147,-0.24344 0.27907,-0.35744 0.34865,-0.82799 0.23475,-1.5875 -0.089,-0.59371 -0.17651,-1.19146 -0.19437,-1.32834 -0.0179,-0.13688 0.17163,-0.29362 0.42109,-0.34831 0.30842,-0.0676 0.50811,0.11787 0.624,0.5796 0.26113,1.04044 0.62816,0.80648 0.49306,-0.31431 -0.0943,-0.78227 -0.009,-1.06232 0.40006,-1.31796 0.44332,-0.27685 0.57988,-0.23883 0.9282,0.25847 0.36703,0.524 0.54104,0.46103 0.43106,-0.15601 -0.022,-0.12345 0.25234,0.005 0.60965,0.28656 0.37842,0.29767 1.12117,0.52949 1.77904,0.55527 0.62117,0.0243 1.21368,0.18063 1.3167,0.34731 0.10307,0.16677 0.39768,0.22233 0.65512,0.12354 0.35656,-0.13682 0.39437,-0.25296 0.159,-0.48834 -0.16986,-0.16986 -0.30883,-0.53605 -0.30883,-0.81376 0,-0.40648 0.12898,-0.47256 0.66146,-0.33892 0.83535,0.20966 0.8301,0.0841 -0.0325,-0.7786 -0.50854,-0.50853 -0.86207,-0.65181 -1.32292,-0.53615 -0.91054,0.22853 -0.77721,-0.29876 0.23098,-0.91346 0.47294,-0.28836 0.71107,-0.52474 0.52917,-0.52528 -0.1819,-5.5e-4 -0.33073,-0.17958 -0.33073,-0.39787 0,-0.21828 0.13295,-0.39687 0.29544,-0.39687 0.17344,0 0.22807,-0.21853 0.13229,-0.52917 -0.0897,-0.29104 -0.23518,-0.76199 -0.32322,-1.04655 -0.14614,-0.47237 -0.10029,-0.48963 0.5271,-0.19843 0.37795,0.17542 0.68811,0.53004 0.68924,0.78806 0.002,0.44771 0.0344,0.44796 0.70949,0.006 0.51835,-0.33964 0.73638,-0.37663 0.81579,-0.13839 0.13199,0.39595 1.81721,0.43503 2.0566,0.0477 0.10573,-0.17108 0.28921,-0.18484 0.47864,-0.0359 0.34464,0.27101 3.11955,0.22231 3.58094,-0.0628 0.16396,-0.10133 0.2981,-0.3558 0.2981,-0.5655 0,-0.20969 0.10518,-0.38126 0.23373,-0.38126 0.12855,0 0.29985,-0.25286 0.38067,-0.56191 0.11959,-0.45733 0.277,-0.52928 0.84572,-0.38654 0.59287,0.1488 0.67557,0.10229 0.54571,-0.30688 -0.0842,-0.26525 -0.17274,-0.98427 -0.19678,-1.59784 -0.024,-0.61357 -0.14926,-1.11558 -0.27827,-1.11558 -0.29101,0 -0.12004,-2.38531 0.21115,-2.9459 0.13335,-0.22571 0.56866,-0.62062 0.96736,-0.87757 0.64199,-0.41375 0.74288,-0.42035 0.88203,-0.0577 0.0864,0.22521 0.0412,0.61659 -0.10045,0.86975 -0.19582,0.3499 -0.12388,0.56854 0.30001,0.91178 0.47461,0.38432 0.50519,0.51465 0.20546,0.8758 -0.19367,0.23336 -0.46797,0.35269 -0.60956,0.26518 -0.14617,-0.0903 -0.22251,0.11106 -0.17662,0.46594 0.10411,0.80521 -0.21137,1.3038 -0.70509,1.11434 -0.24084,-0.0924 -0.3884,0.0103 -0.3884,0.27046 0,0.35616 0.10428,0.372 0.69044,0.10493 0.5927,-0.27005 0.74253,-0.24336 1.05834,0.18853 0.53236,0.72804 0.47055,1.26398 -0.124,1.07527 -0.72284,-0.22942 -1.3602,0.10169 -1.3602,0.70662 0,0.42595 0.12347,0.49855 0.63119,0.37112 0.39942,-0.10024 0.75135,-0.0136 0.95844,0.2359 0.17999,0.21688 0.52103,0.3925 0.75787,0.39027 0.3725,-0.004 0.37735,-0.0377 0.036,-0.25357 -0.31202,-0.19727 -0.32661,-0.31756 -0.0696,-0.57452 0.25697,-0.25696 0.45397,-0.20387 0.94089,0.25356 0.78956,0.74176 0.97864,0.72877 0.97864,-0.0673 0,-0.92409 0.36138,-1.02206 1.0533,-0.28555 0.41341,0.44006 0.56077,0.8505 0.47202,1.31476 -0.0915,0.4787 -0.0147,0.67497 0.26423,0.67497 0.50105,0 0.25466,-1.46582 -0.36068,-2.14576 -0.55913,-0.61783 -0.37134,-1.40636 0.35977,-1.51066 0.32593,-0.0465 0.59261,0.0428 0.59261,0.19844 0,0.15564 -0.20836,0.28563 -0.46303,0.28886 -0.39334,0.005 -0.37422,0.0747 0.12708,0.46302 0.32455,0.25143 0.66873,0.87386 0.76483,1.38318 0.23756,1.25897 0.56763,1.63921 1.15161,1.32667 0.25663,-0.13734 0.52707,-0.18924 0.60099,-0.11532 0.0739,0.0739 0.2049,-0.0493 0.29107,-0.27389 0.0862,-0.22456 0.0539,-0.40829 -0.0716,-0.40829 -0.12556,0 -0.21112,-0.29757 -0.19014,-0.66127 0.0431,-0.74673 0.46998,-0.85349 1.0587,-0.26477 0.4589,0.45891 0.81304,0.53046 0.55444,0.11203 -0.1823,-0.29496 0.72281,-1.30266 1.17003,-1.30266 0.13948,0 0.32305,0.14883 0.40794,0.33073 0.12347,0.26459 0.18521,0.26459 0.30868,0 0.0849,-0.1819 0.33759,-0.33073 0.56157,-0.33073 0.3421,0 0.35143,0.0672 0.0583,0.4204 -0.30012,0.36162 -0.2769,0.40786 0.16604,0.33073 0.32118,-0.0559 0.51494,0.0597 0.51494,0.30721 0,0.24494 -0.20259,0.36879 -0.52917,0.32352 -0.50469,-0.07 -0.50702,-0.0558 -0.0503,0.30532 0.48617,0.38448 0.17983,0.88711 -0.34353,0.56366 -0.14998,-0.0927 -0.19434,0.0135 -0.10399,0.24896 0.0867,0.22584 0.0258,0.41062 -0.13532,0.41062 -0.16109,0 -0.29289,0.12325 -0.29289,0.27389 0,0.18513 0.15965,0.18846 0.49262,0.0103 0.63172,-0.33808 1.29041,0.13855 1.40689,1.01805 0.0467,0.35241 0.26346,0.69613 0.48174,0.76383 0.21828,0.0677 0.31177,0.0316 0.20775,-0.0802 -0.31589,-0.33956 0.305,-1.19206 0.8682,-1.19206 0.66761,0 0.90413,0.58937 0.52262,1.30224 -0.25965,0.48515 -0.22017,0.54984 0.33549,0.54984 0.86634,0 1.60263,0.87307 1.44254,1.71052 -0.10009,0.52361 -0.0202,0.67073 0.36426,0.67073 0.37081,0 0.49247,-0.1961 0.49247,-0.79375 0,-0.43656 -0.11055,-0.79375 -0.24568,-0.79375 -0.39425,0 -1.09627,-0.81347 -0.93176,-1.07966 0.25547,-0.41336 1.33707,-0.26861 1.7979,0.2406 0.24083,0.26612 0.43788,0.79816 0.43788,1.18232 0,0.92167 0.73021,0.68033 0.84448,-0.2791 0.13477,-1.13159 0.65416,-0.96132 0.97686,0.32024 0.23531,0.93448 0.22823,1.32008 -0.032,1.74515 -0.28319,0.46251 -0.26355,0.58571 0.12893,0.80869 0.65656,0.37301 0.57376,1.09882 -0.20927,1.83444 -0.66592,0.6256 -0.66702,0.63353 -0.11529,0.83763 0.30634,0.11332 0.48279,0.32611 0.39209,0.47287 -0.21905,0.35443 -1.19201,0.34351 -1.19201,-0.0134 0,-0.15411 -0.11906,-0.20661 -0.26459,-0.11668 -0.58662,0.36255 -0.27293,1.40716 0.52917,1.76221 0.89817,0.39756 1.04649,1.16261 0.33073,1.70594 -0.25466,0.19332 -0.3368,0.35527 -0.18252,0.3599 0.57587,0.0173 1.98491,-1.63962 1.82441,-2.14531 -0.11506,-0.36251 0.0269,-0.56127 0.54039,-0.75649 1.15037,-0.43737 1.80222,-0.34192 1.64963,0.24156 -0.0913,0.34927 0.0305,0.54894 0.39264,0.64365 0.5581,0.14594 0.41793,0.70208 -0.17696,0.70208 -0.19412,0 -0.42663,0.19201 -0.51668,0.42668 -0.12479,0.3252 -0.24875,0.35611 -0.52123,0.12998 -0.28635,-0.23766 -0.33411,-0.17436 -0.23997,0.3181 0.0975,0.50998 0.24866,0.59554 0.88675,0.50189 0.55756,-0.0818 0.81804,0.0143 0.94667,0.34953 0.27839,0.72548 -0.27143,1.31939 -1.19646,1.2924 -0.95016,-0.0277 -1.11892,0.51073 -0.29781,0.95017 0.29104,0.15576 0.52916,0.55392 0.52916,0.88478 0,0.33087 0.17481,0.8327 0.38847,1.11518 0.50995,0.67421 0.49965,0.84923 -0.0577,0.98171 -0.36444,0.0866 -0.30667,0.1744 0.27137,0.4123 0.90705,0.37333 1.21758,1.07357 0.65765,1.483 -0.22755,0.16639 -0.45441,0.54265 -0.50413,0.83614 -0.0984,0.58074 0.65188,1.89904 1.37503,2.41611 0.97587,0.69776 0.76229,3.24787 -0.27201,3.24787 -0.29465,0 -0.53599,-0.0893 -0.53632,-0.19844 -2.7e-4,-0.10914 -0.35752,-0.21112 -0.79375,-0.22661 -0.90237,-0.0321 -0.97104,0.17216 -0.36761,1.09312 0.38384,0.58581 0.38508,0.66498 0.0127,0.80789 -0.22707,0.0871 -0.5294,0.0864 -0.67184,-0.002 -0.14243,-0.088 -0.3449,-0.021 -0.44993,0.14893 -0.13502,0.21847 -0.29167,0.17125 -0.53474,-0.16116 -0.1991,-0.27229 -0.51872,-0.40301 -0.75948,-0.31062 -0.34241,0.13139 -0.36634,0.0673 -0.1357,-0.36369 0.28671,-0.53572 -0.082,-0.77319 -0.4005,-0.25792 -0.10956,0.17727 -0.32889,0.17704 -0.66102,-7.9e-4 -0.55693,-0.29806 -0.95353,0.0566 -0.63665,0.5693 0.10358,0.1676 -0.01,0.44958 -0.2519,0.62663 -0.38438,0.28107 -0.39098,0.36278 -0.052,0.6441 0.51749,0.42948 0.94056,0.13036 0.94056,-0.66502 0,-0.7296 0.51461,-0.89887 0.55582,-0.18282 0.13569,2.35749 0.044,2.79217 -0.55582,2.63531 -0.29104,-0.0761 -0.52916,-0.0305 -0.52916,0.10144 0,0.27341 0.81074,0.31821 1.43356,0.0792 0.23019,-0.0883 0.41852,-0.31367 0.41852,-0.50081 0,-0.44481 0.81071,-0.75033 1.13377,-0.42727 0.15899,0.15898 0.0503,0.37719 -0.29538,0.59308 -0.38495,0.2404 -0.46873,0.43574 -0.28293,0.65962 0.38671,0.46595 -0.1655,0.71549 -0.81458,0.36812 -0.45629,-0.2442 -0.53463,-0.20601 -0.53463,0.26065 0,0.30073 -0.20836,0.62496 -0.46302,0.72051 -0.5526,0.20735 -1.10437,0.86863 -1.11607,1.33756 -0.0151,0.60604 1.34009,0.92589 2.48169,0.58572 2.4184,-0.72062 2.97019,-0.5495 1.7682,0.54835 -0.45029,0.41128 -0.81872,0.8863 -0.81872,1.05559 0,0.16929 -0.17859,0.23927 -0.39687,0.15551 -0.2503,-0.096 -0.39688,0.003 -0.39688,0.26867 0,0.3442 -0.0724,0.3609 -0.39687,0.0916 -0.33201,-0.27554 -0.39688,-0.23569 -0.39688,0.24379 0,0.3991 -0.14061,0.54955 -0.46302,0.49542 -0.34057,-0.0572 -0.44635,0.0797 -0.39999,0.51756 0.0468,0.44166 -0.0749,0.59532 -0.47133,0.59532 -0.29389,0 -0.60288,-0.1786 -0.68665,-0.39688 -0.28383,-0.73967 -0.50789,-0.40182 -0.44769,0.67508 0.0498,0.89046 -0.0385,1.10927 -0.52164,1.29243 -0.61596,0.23354 -2.03676,-0.3874 -2.03676,-0.89014 0,-0.14506 0.32742,-0.53182 0.7276,-0.85948 0.69574,-0.56965 0.70222,-0.59615 0.14791,-0.60525 -0.31884,-0.005 -0.66587,0.12991 -0.77118,0.30031 -0.12498,0.20222 -0.27198,0.0922 -0.42329,-0.31683 l -0.23181,-0.62664 -0.52415,0.8619 c -0.56046,0.9216 -0.48945,1.34652 0.23064,1.38014 0.27547,0.0129 0.32031,0.0722 0.11667,0.15434 -0.1819,0.0734 -0.33073,0.25923 -0.33073,0.41296 0,0.51582 -0.88619,0.96845 -1.37934,0.70452 -0.34852,-0.18652 -0.42639,-0.15688 -0.31953,0.1216 0.26862,0.7 -0.93816,0.7165 -1.54281,0.0211 -0.30685,-0.35291 -0.67795,-0.64165 -0.82467,-0.64165 -0.14672,0 -0.006,0.24276 0.3123,0.53947 0.6422,0.5983 0.74551,1.3049 0.26155,1.78886 -0.24694,0.24694 -0.17345,0.32446 0.33073,0.34883 0.35653,0.0172 0.75243,0.0123 0.87978,-0.011 0.12736,-0.0233 0.42502,0.12565 0.66146,0.33102 0.23645,0.20536 0.7871,0.49588 1.22366,0.64559 l 0.79375,0.27221 -1.11153,0.48992 c -0.90695,0.39975 -1.1261,0.63602 -1.19063,1.28367 -0.0629,0.63106 -0.20111,0.78945 -0.6744,0.77275 -0.35259,-0.0124 -0.59532,0.13498 -0.59532,0.36158 0,0.26765 0.17886,0.33467 0.59532,0.22306 0.32742,-0.0877 0.68461,-0.16116 0.79375,-0.16315 0.10914,-0.002 0.19843,-0.18221 0.19843,-0.40049 0,-0.57861 0.46537,-0.48554 0.66146,0.1323 0.19499,0.61433 0.20575,0.61601 1.55308,0.24191 1.36985,-0.38036 1.87418,0.0748 0.73539,0.6637 -0.50186,0.25952 -0.76075,0.56299 -0.67373,0.78976 0.20308,0.52922 -1.42057,0.99951 -2.97915,0.86292 -0.70478,-0.0618 -1.07306,-0.0591 -0.8184,0.006 0.25466,0.0651 0.46302,0.29795 0.46302,0.51749 0,0.51145 -1.84879,0.39845 -2.26991,-0.13874 -0.23018,-0.29364 -0.40209,-0.30185 -0.88694,-0.0424 -0.33078,0.17703 -0.85094,0.25662 -1.15591,0.17687 -0.30497,-0.0798 -0.70191,-0.0227 -0.88208,0.12686 -0.2248,0.18657 -0.49347,0.18309 -0.85627,-0.0111 -1.00769,-0.53929 -1.36043,-0.3659 -1.1737,0.57696 0.16069,0.81133 0.14258,0.83748 -0.32073,0.46302 -0.44505,-0.35971 -0.47479,-0.35352 -0.31751,0.0661 0.0954,0.25467 0.088,0.45924 -0.0166,0.45461 -0.41638,-0.0184 -1.11617,-0.73644 -1.11617,-1.14524 0,-0.23862 -0.10615,-0.43385 -0.2359,-0.43385 -0.12974,0 -0.31101,-0.29925 -0.4028,-0.66501 -0.13606,-0.54211 -0.28273,-0.63594 -0.79357,-0.50773 -0.34467,0.0865 -0.70621,0.0286 -0.80344,-0.12874 -0.27214,-0.44033 -1.72622,-0.34708 -1.90632,0.12227 -0.21754,0.56691 0.0263,0.73475 1.0262,0.70632 1.03972,-0.0296 1.79292,0.5874 1.79292,1.46862 0,0.56667 0.0872,0.62724 0.68676,0.47677 0.40302,-0.10115 0.8488,-0.0379 1.07892,0.15309 0.33967,0.28189 0.30972,0.38887 -0.22375,0.79926 l -0.61589,0.4738 0.70596,0.006 c 0.8749,0.007 1.543,0.25122 1.543,0.56336 0,0.12995 -0.23813,0.23628 -0.52917,0.23628 -0.29104,0 -0.52917,0.11906 -0.52917,0.26458 0,0.47283 -0.44062,0.27953 -0.75392,-0.33073 -0.27638,-0.53837 -0.29089,-0.51307 -0.1517,0.26459 0.14088,0.78707 0.0963,0.85989 -0.52632,0.85989 -0.3937,0 -0.81945,-0.22291 -1.01071,-0.52917 -0.18176,-0.29104 -0.49035,-0.52916 -0.68575,-0.52916 -0.1954,0 -0.30191,-0.14883 -0.23669,-0.33073 0.0652,-0.1819 0.004,-0.55321 -0.13635,-0.82513 -0.23981,-0.46508 -0.27344,-0.45727 -0.56712,0.13178 -0.25403,0.50953 -0.4999,0.61772 -1.31982,0.58073 -0.5542,-0.025 -1.21501,-0.23313 -1.46848,-0.46251 -0.67624,-0.61199 -1.08064,-0.50994 -1.08064,0.27271 0,0.48871 -0.11004,0.64754 -0.37753,0.54489 -0.20764,-0.0797 -0.51987,0.0266 -0.69385,0.23628 -0.41043,0.49453 -0.76056,0.48139 -1.34843,-0.0506 -0.40108,-0.36297 -0.60064,-0.38059 -1.25248,-0.11059 -0.85934,0.35594 -1.9021,0.29093 -1.91005,-0.11909 -0.003,-0.14552 0.26978,-0.32883 0.60579,-0.40734 0.73679,-0.17216 1.06098,-1.57703 0.36392,-1.57703 -0.22795,0 -0.41445,0.11906 -0.41445,0.26458 0,0.14552 -0.1539,0.26459 -0.342,0.26459 -0.4544,0 -0.94804,2.00346 -0.7909,3.20989 0.11755,0.90246 -0.17151,1.48292 -0.54999,1.10444 z m 4.68961,-4.63714 c -0.0987,-0.15967 -0.25174,-0.12193 -0.38991,0.0961 -0.36162,0.57072 -0.27178,0.85071 0.1584,0.49369 0.21668,-0.17983 0.32086,-0.44525 0.23151,-0.58981 z m -6.31209,-0.47405 c 0.0919,-0.14876 -0.19502,-0.33978 -0.64584,-0.42995 -0.44621,-0.0892 -0.81129,-0.31894 -0.81129,-0.51044 0,-0.19151 -0.11906,-0.42177 -0.26458,-0.51171 -0.48446,-0.29941 -0.27274,0.6533 0.26458,1.19062 0.57451,0.57451 1.19487,0.68583 1.45713,0.26148 z m 2.91938,-0.50846 c -0.0959,-0.1552 -0.30102,-0.28218 -0.45577,-0.28218 -0.17545,0 -0.15537,0.15181 0.0533,0.40327 0.36289,0.43725 0.68721,0.33967 0.40245,-0.12109 z m 7.26516,-3.98635 c 0,-0.14552 -0.11907,-0.26458 -0.26459,-0.26458 -0.14552,0 -0.26458,0.11906 -0.26458,0.26458 0,0.14552 0.11906,0.26458 0.26458,0.26458 0.14552,0 0.26459,-0.11906 0.26459,-0.26458 z m -16.28901,-0.23686 c 0.0805,-0.13027 -0.0486,-0.31167 -0.28684,-0.4031 -0.5151,-0.19767 -0.7432,-0.0347 -0.50066,0.35777 0.21264,0.34406 0.58947,0.36575 0.7875,0.0453 z m 9.80672,-0.55689 c 0.0899,-0.14552 0.0445,-0.26458 -0.10107,-0.26458 -0.14552,0 -0.33816,0.11906 -0.4281,0.26458 -0.0899,0.14552 -0.0445,0.26458 0.10106,0.26458 0.14552,0 0.33817,-0.11906 0.42811,-0.26458 z m 17.59479,-1.45521 c 0,-0.21828 -0.11906,-0.39687 -0.26459,-0.39687 -0.14552,0 -0.26458,0.17859 -0.26458,0.39687 0,0.21828 0.11906,0.39688 0.26458,0.39688 0.14553,0 0.26459,-0.1786 0.26459,-0.39688 z m 1.62367,-1.39905 c -0.19088,-0.0636 -0.47285,0.0101 -0.6266,0.16386 -0.19634,0.19634 -0.093,0.23077 0.34705,0.11568 0.35777,-0.0936 0.47771,-0.21349 0.27955,-0.27954 z m -36.81326,-2.2895 c 0,-0.0642 -0.11906,-0.19026 -0.26458,-0.2802 -0.14552,-0.0899 -0.26458,-0.0374 -0.26458,0.11668 0,0.15411 0.11906,0.2802 0.26458,0.2802 0.14552,0 0.26458,-0.0525 0.26458,-0.11668 z m 30.38977,-6.69634 c -0.0915,-1.48858 0.36123,-1.5959 0.59508,-0.14106 0.0885,0.55053 0.17779,0.79259 0.19844,0.53793 0.0222,-0.27412 0.25344,-0.46302 0.56671,-0.46302 0.29105,0 0.52917,-0.11452 0.52917,-0.25449 0,-0.14575 0.72599,-0.21651 1.69895,-0.1656 1.69789,0.0888 1.69877,0.0885 1.41631,-0.53142 -0.37192,-0.81627 0.12171,-1.42974 1.15047,-1.42974 0.48651,0 0.76135,-0.13763 0.76135,-0.38126 0,-0.20969 0.11585,-0.45285 0.25743,-0.54036 0.29485,-0.18222 2.02743,-0.46613 2.72485,-0.44651 0.25781,0.007 0.39961,-0.0987 0.31512,-0.23538 -0.0845,-0.13671 -0.32519,-0.24857 -0.53489,-0.24857 -0.57476,0 -0.45754,-0.73388 0.14791,-0.92604 0.29104,-0.0924 0.52917,-0.33853 0.52917,-0.547 0,-0.48309 -0.268,-0.47951 -0.9711,0.013 -0.43801,0.3068 -0.61443,0.32118 -0.81155,0.0662 -0.64522,-0.83477 -0.54995,-1.17154 0.45714,-1.61586 0.90936,-0.40121 1.00548,-0.53817 0.98111,-1.39801 -0.0251,-0.88594 -0.0456,-0.90876 -0.29018,-0.32324 -0.3667,0.87787 -0.36432,0.8764 -0.81424,0.50301 -0.2218,-0.18408 -0.40327,-0.61479 -0.40327,-0.95713 0,-0.54611 0.0943,-0.60358 0.76936,-0.46858 0.59958,0.11992 0.83312,0.0347 1.05833,-0.38609 0.40994,-0.76599 0.42374,-0.75329 -1.02774,-0.94584 l -1.31672,-0.17467 0.16134,-1.17711 c 0.12935,-0.94369 0.0756,-1.20999 -0.27078,-1.34293 -0.65757,-0.25234 -0.54466,-1.35828 0.16319,-1.59846 0.32743,-0.11109 0.74414,-0.17343 0.92605,-0.13852 0.191,0.0366 0.33072,-0.2072 0.33072,-0.57719 0,-0.35236 0.16631,-0.77868 0.36957,-0.94737 0.20326,-0.16869 0.30827,-0.54109 0.23335,-0.82755 -0.0749,-0.28647 0.003,-0.68821 0.17245,-0.89276 0.34322,-0.41356 -0.0489,-0.83678 -0.51078,-0.55132 -0.14552,0.0899 -0.26459,0.0136 -0.26459,-0.16959 0,-0.25909 -0.0706,-0.26256 -0.3175,-0.0156 -0.43212,0.43212 -0.74083,0.39904 -0.74083,-0.0794 0,-0.21829 0.11906,-0.39688 0.26458,-0.39688 0.48679,0 0.27154,-0.72833 -0.33213,-1.12387 -0.36623,-0.23997 -0.94382,-0.34004 -1.49537,-0.25909 -0.89772,0.13176 -0.89821,0.13124 -0.46162,-0.49207 0.55202,-0.78812 0.55513,-1.06409 0.01,-0.85477 -0.33983,0.13041 -0.39039,0.0474 -0.24675,-0.40518 0.23015,-0.72514 -0.26487,-0.75304 -0.71016,-0.04 -0.39903,0.63896 -0.73235,0.68513 -0.73235,0.10145 0,-0.31465 -0.17654,-0.39398 -0.66777,-0.30007 -0.75253,0.14385 -1.13008,-0.22603 -0.68501,-0.6711 0.42081,-0.42081 0.3637,-0.80097 -0.0939,-0.62535 -0.49429,0.18967 -0.82066,-0.31211 -0.44642,-0.68636 0.20125,-0.20125 0.39806,-0.18793 0.67995,0.046 0.31874,0.26453 0.50412,0.25403 0.94303,-0.0534 0.438,-0.30678 0.47784,-0.43947 0.20093,-0.66928 -0.2197,-0.18234 -0.48656,-0.19735 -0.73338,-0.0413 -0.65398,0.41363 -0.73868,0.295 -0.62184,-0.87097 0.10377,-1.0357 0.0872,-1.07226 -0.20947,-0.46303 -0.17717,0.36381 -0.35754,0.71034 -0.40081,0.77008 -0.0433,0.0597 -0.30147,-0.093 -0.57376,-0.33942 -0.47126,-0.42648 -0.5113,-0.40892 -0.83177,0.36476 -0.29576,0.71403 -0.27879,0.85514 0.13958,1.16107 0.30036,0.21962 0.41182,0.51618 0.30178,0.80293 -0.2471,0.64393 -1.10042,0.40467 -1.10976,-0.31116 -0.004,-0.32174 -0.17055,-0.73633 -0.36967,-0.92131 -0.29832,-0.27713 -0.33336,-0.25483 -0.1991,0.1267 0.12665,0.35993 0.0175,0.46302 -0.49023,0.46302 -0.37839,0 -0.65316,0.15333 -0.65316,0.36448 0,0.61974 -0.67646,1.02169 -1.02093,0.60663 -0.16357,-0.19709 -0.20972,-0.46645 -0.10257,-0.59858 0.10715,-0.13213 -0.1903,0.10827 -0.66099,0.53422 -0.4707,0.42596 -0.90489,0.72361 -0.96487,0.66146 -0.06,-0.0622 -0.0273,-0.82738 0.0725,-1.7005 l 0.18158,-1.5875 0.46067,0.8599 c 0.52875,0.98697 1.27839,1.19295 1.04124,0.2861 -0.12541,-0.47958 -0.067,-0.54217 0.3555,-0.3812 0.40554,0.15449 0.44013,0.12668 0.17482,-0.14058 -0.49036,-0.49399 -0.40101,-0.83661 0.17864,-0.68503 0.3797,0.0993 0.46904,0.0281 0.35095,-0.27965 -0.11435,-0.29798 -0.0413,-0.36792 0.26248,-0.25135 0.25307,0.0971 0.48488,-0.005 0.58133,-0.25652 0.23785,-0.61984 -0.0351,-0.73992 -0.77808,-0.3423 -0.89927,0.48128 -1.14475,0.13462 -0.43766,-0.61804 l 0.57866,-0.61596 -0.66581,-0.30337 c -0.3662,-0.16685 -0.66875,-0.51428 -0.67233,-0.77206 -0.004,-0.26695 -0.40137,-0.6651 -0.92387,-0.925 l -0.91737,-0.4563 0.034,0.98547 c 0.0196,0.56696 -0.21657,1.46133 -0.55598,2.10598 -0.32447,0.61628 -0.65382,1.59678 -0.7319,2.17889 -0.0781,0.58211 -0.30511,1.19379 -0.50452,1.35929 -0.42285,0.35093 -0.4805,1.19032 -0.098,1.42673 0.14552,0.0899 0.26383,0.24579 0.26291,0.34634 -0.002,0.21315 -1.514,1.10887 -1.87185,1.10887 -0.44513,0 -0.25076,-1.23317 0.29323,-1.86039 0.295,-0.34015 0.59985,-0.92391 0.67743,-1.29726 0.0776,-0.37334 0.25294,-0.88555 0.38968,-1.13824 0.34825,-0.6436 0.31908,-0.70009 -0.28057,-0.54327 -0.29104,0.0761 -0.54405,0.005 -0.56224,-0.15707 -0.0182,-0.16249 -0.0628,-0.4145 -0.0992,-0.56002 -0.0364,-0.14552 -0.081,-0.40746 -0.0992,-0.58209 -0.0239,-0.22961 -0.1131,-0.23747 -0.32217,-0.0284 -0.20907,0.20907 -0.20313,0.44971 0.0214,0.86933 0.36502,0.68204 0.35262,0.70168 -0.59278,0.93896 -0.48203,0.12098 -0.72705,0.0784 -0.72705,-0.1264 0,-0.16989 -0.11907,-0.2353 -0.26459,-0.14536 -0.6009,0.37138 -0.7927,-0.20342 -0.23057,-0.69096 0.42575,-0.36925 0.50927,-0.59138 0.30077,-0.79989 -0.34819,-0.34818 -0.86395,-0.0807 -0.86395,0.44813 0,0.20969 -0.17859,0.38126 -0.39687,0.38126 -0.27589,0 -0.39688,0.27755 -0.39688,0.91043 0,0.50073 -0.13048,0.99107 -0.28997,1.08964 -0.49777,0.30764 -1.13957,-0.61552 -1.11169,-1.59905 0.0249,-0.87823 -0.0216,-0.93019 -0.83248,-0.93019 -1.01537,0 -1.96386,0.85247 -1.54,1.3841 0.38812,0.48683 0.5711,3.03603 0.24157,3.36556 -0.41195,0.41195 -0.6994,0.33695 -0.71135,-0.18559 -0.007,-0.32543 -0.13065,-0.24155 -0.4146,0.28227 -0.31369,0.57869 -0.33428,0.8293 -0.0921,1.12111 0.17155,0.2067 0.24574,0.54823 0.16488,0.75897 -0.0809,0.21073 -0.005,0.43549 0.16883,0.49946 0.2398,0.0883 0.23463,0.20233 -0.0215,0.47349 -0.28314,0.2998 -0.4319,0.29909 -0.92604,-0.004 -0.58335,-0.3583 -0.5842,-0.35652 -0.0936,0.1952 0.29729,0.33433 0.42585,0.73728 0.32177,1.00852 -0.0953,0.24845 -0.0329,0.53852 0.13876,0.64461 0.19401,0.1199 0.23166,0.37818 0.0995,0.68261 -0.11692,0.26935 -0.18858,0.63855 -0.15925,0.82045 0.0693,0.42995 -0.68573,0.43211 -0.82898,0.002 -0.0796,-0.23879 -0.22996,-0.20786 -0.55121,0.1134 -0.24297,0.24296 -0.44176,0.49085 -0.44176,0.55084 0,0.06 0.65281,0.25518 1.4507,0.43374 1.47064,0.32912 1.88488,0.6086 1.59565,1.07657 -0.0957,0.15481 -0.55192,0.0486 -1.13617,-0.26458 -1.29238,-0.6927 -2.17478,-0.69031 -2.17478,0.006 0,0.29104 0.11907,0.52916 0.26459,0.52916 0.14552,0 0.26458,0.19134 0.26458,0.42519 0,0.25606 0.14757,0.36855 0.37101,0.28281 0.69289,-0.26588 0.6949,0.17604 0.003,0.63 -0.3788,0.24849 -0.58744,0.51439 -0.46365,0.5909 0.35084,0.21683 1.68865,-0.10893 1.52628,-0.37165 -0.0797,-0.12888 0.0281,-0.23433 0.23936,-0.23433 0.47259,0 0.78358,0.71419 0.4112,0.94433 -0.14908,0.0921 -0.20659,0.33555 -0.12778,0.54091 0.10992,0.28646 -0.0171,0.33313 -0.54563,0.20048 -0.5028,-0.12619 -0.65778,-0.0795 -0.57371,0.17269 0.0634,0.19008 0.43574,0.35963 0.8275,0.37678 0.39177,0.0171 0.921,0.25122 1.17607,0.52017 0.44457,0.46875 0.43912,0.48311 -0.13154,0.3468 -0.73648,-0.17592 -0.79483,0.23844 -0.0661,0.46972 0.29104,0.0924 0.52916,0.33852 0.52916,0.54699 0,0.20848 0.23439,0.37905 0.52087,0.37905 0.37202,0 0.47373,0.12282 0.35593,0.4298 -0.14591,0.38023 -0.083,0.3761 0.54573,-0.0358 0.39086,-0.2561 0.77515,-0.40115 0.85397,-0.32232 0.13617,0.13616 -0.15925,1.40625 -0.54684,2.35105 -0.15999,0.38999 -0.0829,0.40437 0.69891,0.1305 0.4833,-0.1693 1.20074,-0.63443 1.5943,-1.03363 0.39357,-0.3992 0.88113,-0.72581 1.08347,-0.72581 0.56343,0 1.36622,-0.9719 0.92911,-1.12482 -0.24077,-0.0842 -0.14883,-0.28437 0.30049,-0.65413 l 0.64739,-0.53277 -0.58125,-0.363 c -0.31969,-0.19964 -0.58125,-0.45341 -0.58125,-0.56393 0,-0.31802 0.91984,-0.23359 1.27,0.11656 0.24694,0.24695 0.3175,0.18815 0.3175,-0.26458 0,-0.34102 0.16436,-0.58208 0.39687,-0.58208 0.35795,0 0.51438,0.31414 0.42821,0.85989 -0.0588,0.37229 0.27997,0.19934 0.77735,-0.39687 0.49478,-0.59309 0.49666,-0.59323 0.50543,-0.0357 0.005,0.30779 -0.23173,0.86542 -0.52572,1.23916 l -0.53452,0.67953 0.79927,-0.39872 c 0.65574,-0.32713 0.77032,-0.514 0.63812,-1.04073 -0.12113,-0.48263 -0.0542,-0.642 0.26947,-0.642 0.33679,0 0.39156,-0.15851 0.25141,-0.7276 -0.0986,-0.40019 -0.35204,-0.99458 -0.5633,-1.32088 -0.45049,-0.69579 -0.26644,-1.3911 0.36823,-1.3911 0.40482,0 0.40093,-0.05 -0.0419,-0.53937 -0.28875,-0.31907 -0.76477,-0.51682 -1.16548,-0.48418 -0.77253,0.0629 -2.92633,-0.78508 -2.92633,-1.15219 0,-0.13386 0.31703,-0.2051 0.70452,-0.1583 0.39536,0.0477 0.75335,-0.0601 0.8158,-0.24565 0.21747,-0.64634 -1.22287,-0.36228 -1.67694,0.33073 -0.5037,0.76873 -0.9124,0.8634 -0.85667,0.19844 0.0794,-0.94693 -0.053,-1.65365 -0.30963,-1.65365 -0.14552,0 -0.26458,0.17057 -0.26458,0.37905 0,0.20847 -0.22527,0.45054 -0.5006,0.53793 -0.27533,0.0874 -0.56184,0.39306 -0.63669,0.67928 -0.13873,0.53051 -0.71479,0.73668 -0.71479,0.25582 0,-0.14552 -0.29063,-0.26458 -0.64585,-0.26458 -0.82135,0 -1.07411,-0.39662 -0.53789,-0.84403 0.22847,-0.19063 0.62982,-0.55811 0.89191,-0.81663 0.61549,-0.60711 1.95674,-0.98517 3.49515,-0.98517 0.96801,0 1.36761,0.14517 1.91997,0.69753 0.6913,0.69131 0.82306,0.59887 0.71138,-0.49909 -0.0682,-0.67083 0.1414,-0.58018 1.16304,0.50295 0.71774,0.76094 0.87954,0.84518 0.76231,0.39687 -0.0819,-0.313 -0.26202,-0.5691 -0.40038,-0.5691 -0.13835,0 -0.18131,-0.22131 -0.0955,-0.49181 0.0901,-0.28392 -0.0142,-0.63314 -0.24675,-0.82614 -0.42074,-0.34919 -0.55992,-1.32788 -0.18884,-1.32788 0.11771,0 0.44513,0.16951 0.72761,0.37668 0.44787,0.32848 0.57304,0.32304 0.97823,-0.0425 0.52815,-0.47644 0.95081,-0.26245 0.51613,0.26131 -0.15689,0.18905 -0.3257,0.63841 -0.37513,0.99858 -0.0494,0.36018 -0.17701,0.79371 -0.2835,0.96339 -0.1065,0.1697 -0.083,0.59943 0.0522,0.95498 0.25688,0.67565 1.35617,1.07073 2.29835,0.82601 0.7023,-0.1824 1.50078,0.45673 1.2822,1.02632 -0.0962,0.25083 -0.34085,0.45604 -0.54356,0.45604 -0.21353,0 -0.36857,0.26941 -0.36857,0.64044 0,0.49688 -0.17844,0.67963 -0.79606,0.81528 -0.96472,0.21189 -0.82507,0.64458 0.14799,0.45856 0.395,-0.0755 0.78472,-0.38717 0.91604,-0.73256 0.31168,-0.81978 0.91113,-1.18527 0.66329,-0.40441 -0.16883,0.53194 -0.13889,0.55096 0.36853,0.23407 0.30376,-0.1897 0.55229,-0.5019 0.55229,-0.69376 0,-0.19186 0.0996,-0.2873 0.2213,-0.21208 0.29198,0.18046 0.35278,1.95215 0.0729,2.12511 -0.11994,0.0741 -0.16052,0.73364 -0.0902,1.4656 0.0852,0.8866 0.0283,1.33084 -0.17037,1.33084 -0.16404,0 -0.29825,-0.13364 -0.29825,-0.29698 0,-0.20616 -0.12047,-0.197 -0.39396,0.03 -0.21668,0.17983 -0.33024,0.43007 -0.25235,0.55609 0.0779,0.12603 0.0113,0.47253 -0.14785,0.77002 -0.22523,0.42084 -0.19859,0.63177 0.12005,0.95041 0.46756,0.46755 0.4637,0.45187 0.24893,1.01155 -0.17759,0.46279 -1.4269,0.58389 -1.4269,0.13831 0,-0.15411 -0.11906,-0.20661 -0.26459,-0.11667 -0.14552,0.0899 -0.26458,0.44823 -0.26458,0.79621 0,0.34799 -0.19697,0.74293 -0.43771,0.87766 -0.39619,0.22172 -0.38365,0.30299 0.13229,0.85678 0.73452,0.78843 0.72497,1.14447 -0.0253,0.9434 -0.32742,-0.0877 -0.74119,-0.16116 -0.91949,-0.16315 -0.2316,-0.003 -0.25607,-0.18277 -0.0857,-0.63097 0.22288,-0.58622 0.19844,-0.60844 -0.37275,-0.33889 -0.33619,0.15866 -0.71695,0.589 -0.84612,0.9563 -0.21717,0.61753 -0.1378,0.71279 1.05392,1.26493 0.70883,0.32841 1.42692,0.5971 1.59575,0.5971 0.16883,0 0.46504,0.25314 0.65826,0.56254 0.34734,0.55617 0.33404,0.56038 -1.1759,0.37172 -0.83998,-0.10495 -1.78775,-0.28986 -2.10616,-0.41092 -1.04856,-0.39867 -1.23259,0.25268 -0.32971,1.16694 0.81778,0.82808 3.59605,2.76679 4.00305,2.79337 0.12013,0.008 0.18364,-0.55128 0.14114,-1.2425 z m 3.4769,-1.90262 c 0,-0.45838 0.46569,-0.54319 0.79617,-0.14499 0.27209,0.32785 0.23272,0.39396 -0.23461,0.39396 -0.30886,0 -0.56156,-0.11203 -0.56156,-0.24897 z m -2.73634,-2.01346 c 0.16059,-0.4185 0.61967,-0.5275 0.61967,-0.14713 0,0.12996 -0.17253,0.30249 -0.3834,0.3834 -0.25625,0.0983 -0.33461,0.02 -0.23627,-0.23627 z m -1.57967,-2.40636 c -0.34505,-0.34505 -0.18032,-0.62288 0.36931,-0.62288 0.30791,0 0.50499,0.13869 0.44648,0.3142 -0.12888,0.38664 -0.57067,0.55381 -0.81579,0.30868 z m 1.821,-0.5929 c -0.18006,-0.29134 0.49415,-0.88431 0.73342,-0.64504 0.0958,0.0958 0.17409,0.33284 0.17409,0.52687 0,0.39415 -0.68206,0.48297 -0.90751,0.11817 z m -12.05177,-0.69783 c 0.18408,-0.2218 0.38918,-0.34878 0.45577,-0.28219 0.18349,0.18349 -0.18932,0.68546 -0.50908,0.68546 -0.17545,0 -0.15538,-0.15181 0.0533,-0.40327 z m 18.25095,-0.39048 c 0,-0.14552 0.11906,-0.26458 0.26458,-0.26458 0.14552,0 0.26458,0.11906 0.26458,0.26458 0,0.14552 -0.11906,0.26458 -0.26458,0.26458 -0.14552,0 -0.26458,-0.11906 -0.26458,-0.26458 z m -4.49792,-0.91994 c 0,-0.54563 1.22322,-1.2916 1.77237,-1.08087 0.39029,0.14977 0.34446,0.26318 -0.32869,0.81333 -0.8958,0.73211 -1.44368,0.83364 -1.44368,0.26754 z m -15.41198,-1.1685 c -0.49141,-0.49828 -0.61706,-1.08656 -0.23207,-1.08656 0.56438,0 2.67652,1.11363 2.53781,1.33806 -0.25803,0.41752 -1.81324,0.24788 -2.30574,-0.2515 z m 18.34766,-1.07094 c -0.26314,-0.16263 -0.27045,-0.26096 -0.0305,-0.40928 0.17374,-0.10738 0.43495,-0.0762 0.58047,0.0694 0.34481,0.34481 -0.0986,0.61888 -0.55001,0.33993 z m -19.33985,-1.8677 c 0.29924,-0.55913 0.50116,-0.62484 1.15228,-0.37498 0.65492,0.25131 0.17784,0.90414 -0.66073,0.90414 -0.69276,0 -0.74478,-0.056 -0.49155,-0.52916 z m 5.4368,-0.24382 c -0.15195,-0.24585 1.43074,-1.17892 1.64177,-0.96789 0.0624,0.0624 0.0351,0.36059 -0.0608,0.6626 -0.17981,0.56654 -1.28736,0.78041 -1.58099,0.30529 z m -8.74409,-1.60827 c 0.0899,-0.14552 0.21603,-0.26458 0.2802,-0.26458 0.0642,0 0.11668,0.11906 0.11668,0.26458 0,0.14553 -0.12609,0.26459 -0.2802,0.26459 -0.15411,0 -0.20662,-0.11906 -0.11668,-0.26459 z m 6.74688,-0.26458 c 0,-0.14552 0.11906,-0.26458 0.26458,-0.26458 0.14552,0 0.26458,0.11906 0.26458,0.26458 0,0.14552 -0.11906,0.26458 -0.26458,0.26458 -0.14552,0 -0.26458,-0.11906 -0.26458,-0.26458 z m 13.94191,-0.16919 c -0.24692,-0.24692 0.0515,-0.62456 0.4935,-0.62456 0.20969,0 0.38125,0.17859 0.38125,0.39688 0,0.39852 -0.55853,0.54389 -0.87475,0.22768 z m -16.27245,-0.37982 c 0.0521,-0.15643 0.20792,-0.28443 0.34616,-0.28443 0.13825,0 0.29402,0.128 0.34616,0.28443 0.0522,0.15644 -0.10362,0.28443 -0.34616,0.28443 -0.24253,0 -0.39831,-0.12799 -0.34616,-0.28443 z m 21.11595,-2.33018 c 0,-0.14552 0.11907,-0.33816 0.26459,-0.4281 0.14552,-0.0899 0.26458,-0.0445 0.26458,0.10106 0,0.14552 -0.11906,0.33817 -0.26458,0.42811 -0.14552,0.0899 -0.26459,0.0444 -0.26459,-0.10107 z m -10.93059,-0.46668 c -0.3635,-0.3635 -0.17496,-0.92492 0.28112,-0.83709 0.25466,0.049 0.46302,0.25621 0.46302,0.46037 0,0.41774 -0.46681,0.65405 -0.74414,0.37672 z m 1.67018,-0.77256 c 0,-0.41648 0.58808,-1.16805 0.80774,-1.0323 0.29959,0.18516 -0.16633,1.18198 -0.55247,1.18198 -0.1404,0 -0.25527,-0.0674 -0.25527,-0.14968 z m -10.26115,-1.21411 c 0.0652,-0.1958 0.33074,-0.39714 0.59011,-0.44741 0.30163,-0.0585 0.42885,0.0369 0.35302,0.26458 -0.0652,0.1958 -0.33075,0.39713 -0.59011,0.44741 -0.30163,0.0585 -0.42885,-0.0369 -0.35302,-0.26458 z m 15.00768,-0.23358 c -0.47901,-0.29604 -0.27167,-0.475 0.7983,-0.68899 0.65884,-0.13177 0.84747,-0.0895 0.76083,0.17041 -0.15846,0.47539 -1.1145,0.79338 -1.55913,0.51858 z m 2.6618,-0.25471 c 0,-0.14552 0.1786,-0.26459 0.39688,-0.26459 0.21828,0 0.39687,0.11907 0.39687,0.26459 0,0.14552 -0.17859,0.26458 -0.39687,0.26458 -0.21828,0 -0.39688,-0.11906 -0.39688,-0.26458 z m -5.64877,-1.69622 c -0.49312,-0.7526 -0.18473,-1.11661 0.59325,-0.70025 0.52389,0.28038 0.59439,1.10539 0.1083,1.26742 -0.14893,0.0496 -0.46463,-0.20559 -0.70155,-0.56717 z m -9.96165,-0.94962 c 0,-0.14552 0.11907,-0.26458 0.26459,-0.26458 0.14552,0 0.26458,0.11906 0.26458,0.26458 0,0.14553 -0.11906,0.26459 -0.26458,0.26459 -0.14552,0 -0.26459,-0.11906 -0.26459,-0.26459 z m 23.61447,21.02501 c 0.18075,-0.94554 -0.61913,-1.35712 -1.26039,-0.64854 -0.38166,0.42174 -0.40593,0.5889 -0.13319,0.91753 0.52403,0.63143 1.24817,0.49165 1.39358,-0.26899 z m -4.38178,-0.5828 c -0.40709,-0.40709 -0.44727,-0.40851 -0.44727,-0.0157 0,0.23733 0.14883,0.48467 0.33073,0.54964 0.5406,0.19307 0.59487,-0.0556 0.11654,-0.5339 z m -17.18084,-3.8396 c -0.12612,-0.38297 -1.2581,-0.61775 -1.2581,-0.26094 0,0.37784 0.31077,0.59167 0.8599,0.59167 0.2874,0 0.45993,-0.1433 0.3982,-0.33073 z m -1.52268,-0.46302 c 0,-0.14552 -0.11906,-0.26459 -0.26458,-0.26459 -0.14552,0 -0.26459,0.11907 -0.26459,0.26459 0,0.14552 0.11907,0.26458 0.26459,0.26458 0.14552,0 0.26458,-0.11906 0.26458,-0.26458 z m -7.51306,-2.3096 c -0.26896,-0.26895 -0.49087,0.13597 -0.2702,0.49302 0.16669,0.26973 0.22902,0.26993 0.31864,0.001 0.0613,-0.18383 0.0395,-0.40617 -0.0484,-0.49409 z m 9.41806,0.4046 c -0.24694,-0.24695 -0.38806,-0.24695 -0.635,0 -0.24694,0.24694 -0.17639,0.3175 0.3175,0.3175 0.49389,0 0.56444,-0.0706 0.3175,-0.3175 z m 26.14084,-2.46063 c 0,-0.21828 -0.11533,-0.39687 -0.25628,-0.39687 -0.14095,0 -0.18775,0.17859 -0.10399,0.39687 0.0838,0.21828 0.19909,0.39688 0.25628,0.39688 0.0572,0 0.10399,-0.1786 0.10399,-0.39688 z m -36.77709,-0.13229 c 0,-0.14552 -0.11906,-0.26458 -0.26458,-0.26458 -0.14552,0 -0.26459,0.11906 -0.26459,0.26458 0,0.14552 0.11907,0.26458 0.26459,0.26458 0.14552,0 0.26458,-0.11906 0.26458,-0.26458 z m -6.48229,-2.04354 c -0.29104,-0.0715 -0.678,-0.2509 -0.8599,-0.39858 -0.23901,-0.19405 -0.33073,-0.14947 -0.33073,0.16077 0,0.31421 0.23048,0.42104 0.8599,0.39858 0.56453,-0.0202 0.67813,-0.0754 0.33073,-0.16077 z m 42.46563,-0.17457 c 0,-0.0558 -0.29766,-0.15835 -0.66146,-0.2279 -0.3638,-0.0695 -0.66146,-0.0239 -0.66146,0.10145 0,0.12534 0.29766,0.22789 0.66146,0.22789 0.3638,0 0.66146,-0.0456 0.66146,-0.10144 z m 0.0661,-0.87903 c -0.32742,-0.0631 -0.59531,-0.22544 -0.59531,-0.36084 0,-0.1354 -0.17859,-0.24619 -0.39687,-0.24619 -0.21829,0 -0.39688,0.1786 -0.39688,0.39688 0,0.28863 0.27062,0.38705 0.99219,0.36084 0.6142,-0.0223 0.76539,-0.0797 0.39687,-0.15069 z M 94.04044,182.638 c 0.35278,-0.35278 0.28828,-0.39688 -0.58046,-0.39688 -0.83875,0 -0.93063,0.0563 -0.64796,0.39688 0.18115,0.21828 0.44236,0.39687 0.58046,0.39687 0.1381,0 0.42968,-0.17859 0.64796,-0.39687 z m -3.36369,-2.3151 c 0.0102,-0.10915 -0.14348,-0.19844 -0.34158,-0.19844 -0.24937,0 -0.31783,0.22159 -0.22251,0.72021 0.1236,0.64658 0.15852,0.66687 0.34159,0.19843 0.11215,-0.28697 0.21228,-0.61106 0.2225,-0.7202 z m 8.53377,0.009 c -0.18985,-0.18986 -0.31309,-0.20548 -0.31309,-0.0397 0,0.35316 0.3129,0.66606 0.48948,0.48948 0.0752,-0.0752 -0.004,-0.27759 -0.17639,-0.44979 z m 34.61192,-1.53017 c 0,-0.14552 -0.12609,-0.26458 -0.2802,-0.26458 -0.15411,0 -0.20661,0.11906 -0.11668,0.26458 0.0899,0.14552 0.21603,0.26458 0.2802,0.26458 0.0642,0 0.11668,-0.11906 0.11668,-0.26458 z m -42.59792,-0.52917 c 0,-0.14552 -0.11907,-0.26458 -0.26459,-0.26458 -0.14552,0 -0.26458,0.11906 -0.26458,0.26458 0,0.14553 0.11906,0.26459 0.26458,0.26459 0.14552,0 0.26459,-0.11906 0.26459,-0.26459 z m 7.85365,-0.31419 c -0.0845,-0.21106 -0.14715,-0.14837 -0.15985,0.15986 -0.0115,0.27891 0.051,0.43518 0.13897,0.34726 0.0879,-0.0879 0.0973,-0.31612 0.0209,-0.50712 z m 31.97702,-0.23257 c 0.28476,-0.46076 -0.0396,-0.55834 -0.40245,-0.12109 -0.20869,0.25146 -0.22876,0.40327 -0.0533,0.40327 0.15475,0 0.35985,-0.12698 0.45577,-0.28218 z m -0.44841,-0.92782 c 0.90384,-0.45089 1.101,-0.90667 0.39222,-0.90667 -0.47375,0 -1.4099,0.72995 -1.4099,1.09935 0,0.2991 0.0514,0.28937 1.01768,-0.19268 z M 96.86902,173.6617 c 0.17286,-0.45044 -0.47735,-1.06318 -0.87041,-0.82026 -0.38046,0.23514 -0.3471,0.86049 0.0546,1.02256 0.54774,0.22102 0.66452,0.19207 0.81586,-0.2023 z m -3.52784,-0.28393 c 0,-0.21828 -0.11906,-0.39687 -0.26458,-0.39687 -0.14552,0 -0.26458,0.17859 -0.26458,0.39687 0,0.21828 0.11906,0.39688 0.26458,0.39688 0.14552,0 0.26458,-0.1786 0.26458,-0.39688 z m 3.96877,-1.64756 c -0.33698,-0.42841 -0.47661,-0.87938 -0.37318,-1.20527 0.10925,-0.34422 0.066,-0.45936 -0.12766,-0.33969 -0.16111,0.0996 -0.29293,0.44518 -0.29293,0.76802 0,0.72341 0.7388,1.82823 1.0811,1.61669 0.13943,-0.0862 0.0116,-0.4597 -0.28733,-0.83975 z m 26.59061,0.45694 c 0.0899,-0.14552 0.0374,-0.26459 -0.11668,-0.26459 -0.15411,0 -0.2802,0.11907 -0.2802,0.26459 0,0.14552 0.0525,0.26458 0.11668,0.26458 0.0642,0 0.19026,-0.11906 0.2802,-0.26458 z m 8.20209,-0.26459 c 0.19522,-0.31587 -0.32327,-0.31587 -1.05834,0 -0.4725,0.20305 -0.45292,0.22939 0.18282,0.24599 0.3916,0.0102 0.78558,-0.10046 0.87552,-0.24599 z m -21.29897,-1.55664 c 0,-0.12854 -0.23812,-0.29599 -0.52916,-0.3721 -0.34392,-0.0899 -0.52917,-0.008 -0.52917,0.23372 0,0.20466 0.23813,0.37211 0.52917,0.37211 0.29104,0 0.52916,-0.10518 0.52916,-0.23373 z m 0.1323,-0.82461 c -0.0899,-0.14552 -0.30533,-0.26276 -0.47864,-0.26053 -0.18934,0.002 -0.15671,0.10643 0.0818,0.26053 0.5083,0.32849 0.59989,0.32849 0.39688,0 z m -0.20391,-1.48295 c -0.0879,-0.0879 -0.31613,-0.0973 -0.50712,-0.0209 -0.21107,0.0845 -0.14837,0.14715 0.15985,0.15985 0.27891,0.0115 0.43519,-0.0511 0.34727,-0.13897 z m -9.71793,-1.16307 c 0,-0.14552 -0.17859,-0.26458 -0.39687,-0.26458 -0.21829,0 -0.39688,0.11906 -0.39688,0.26458 0,0.14552 0.17859,0.26459 0.39688,0.26459 0.21828,0 0.39687,-0.11907 0.39687,-0.26459 z m 21.80649,-0.95435 c 0.45712,-0.17541 0.58098,-0.89773 0.15393,-0.89773 -0.14552,0 -0.26459,0.16867 -0.26459,0.37483 0,0.20615 -0.14882,0.43488 -0.33072,0.50827 -0.18191,0.0734 -0.25117,0.14286 -0.15394,0.15434 0.0972,0.0115 0.36513,-0.0514 0.59532,-0.13971 z m -20.57886,-1.02901 c -0.23413,-0.61013 -0.67859,-0.24676 -0.5059,0.41361 0.0952,0.36385 0.23118,0.4581 0.40717,0.28211 0.14535,-0.14536 0.18978,-0.45843 0.0987,-0.69572 z m 3.10139,0.26357 c -0.16103,-0.41962 -0.62485,-0.55056 -0.62485,-0.17639 0,0.2798 0.28921,0.57327 0.56496,0.57327 0.1167,0 0.14365,-0.1786 0.0599,-0.39688 z m 3.70823,53.72101 c -0.0908,-0.23666 -0.10792,-0.48749 -0.038,-0.5574 0.22406,-0.22406 1.02246,0.20463 0.92509,0.49672 -0.15893,0.47681 -0.71286,0.5147 -0.88708,0.0607 z m 10.82226,-3.041 c 0.0736,-0.92249 0.0926,-0.93677 1.12488,-0.84522 0.57749,0.0512 1.13928,0.14755 1.24842,0.21405 0.3065,0.18678 0.2345,0.61887 -0.10312,0.61887 -0.16586,0 -0.45389,0.20836 -0.64007,0.46302 -0.18618,0.25466 -0.64597,0.46855 -1.02175,0.47532 -0.62214,0.0112 -0.67655,-0.0716 -0.60836,-0.92604 z m -32.99972,-1.39409 c -0.22653,-0.32342 -0.41187,-0.68543 -0.41187,-0.80447 0,-0.11903 -0.25484,-0.5611 -0.5663,-0.98237 -0.44688,-0.60444 -0.53485,-1.00041 -0.41717,-1.87778 0.082,-0.6115 0.35376,-1.30379 0.60386,-1.53843 0.41898,-0.39308 0.4426,-0.3917 0.30039,0.0176 -0.78387,2.25616 -0.40555,3.39222 1.12963,3.39222 0.56749,0 1.36698,0.13815 1.77663,0.30701 0.40966,0.16886 0.89366,0.2827 1.07556,0.25299 0.56454,-0.0922 0.36476,0.49376 -0.39687,1.16412 -0.97511,0.85825 -2.51699,0.89268 -3.09386,0.0691 z m 4.53421,-0.11033 c -0.0931,-0.0931 -0.10909,-0.26645 -0.0356,-0.38532 0.16497,-0.26692 0.91037,-0.006 0.91037,0.31824 0,0.27149 -0.6226,0.31923 -0.87475,0.0671 z m 39.96694,-0.93207 c -0.9917,-0.3622 -1.00516,-1.57719 -0.0275,-2.48324 0.38505,-0.35685 0.59937,-0.64882 0.47625,-0.64882 -0.12311,0 -0.081,-0.14288 0.0937,-0.3175 0.24694,-0.24695 0.38805,-0.24695 0.635,0 0.17462,0.17462 0.54455,0.3175 0.82206,0.3175 0.33979,0 0.45482,0.1296 0.35226,0.39687 -0.0838,0.21828 -0.045,0.39688 0.0862,0.39688 0.34818,0 0.60823,0.99787 0.36139,1.38669 -0.11631,0.1832 -0.21386,0.45216 -0.21679,0.59768 -0.003,0.14552 -0.26188,0.26458 -0.57546,0.26458 -0.31357,0 -0.66027,0.0893 -0.77043,0.19844 -0.23972,0.2375 -0.30292,0.23192 -1.23658,-0.10908 z M 87.88419,211.2643 c -0.58671,-0.29281 -0.80226,-1.5133 -0.26458,-1.4981 0.44132,0.0125 1.09486,0.57344 1.45437,1.24836 0.27454,0.5154 0.25371,0.59095 -0.15522,0.56283 -0.25978,-0.0179 -0.72534,-0.15876 -1.03457,-0.31309 z M 78.796,208.64273 c -0.79659,-0.42207 -1.49084,-0.8099 -1.54279,-0.86184 -0.20005,-0.20005 0.51753,-1.20465 0.75545,-1.0576 0.40041,0.24746 0.29064,-0.30765 -0.12984,-0.65661 -0.20963,-0.17398 -0.31133,-0.49825 -0.22601,-0.7206 0.1364,-0.35544 0.0562,-0.35311 -0.66405,0.0193 -0.45055,0.23299 -0.91992,0.42362 -1.04305,0.42362 -0.36796,0 -0.22947,-1.20547 0.1976,-1.71992 0.21828,-0.26294 0.36711,-0.51931 0.33073,-0.5697 -0.26786,-0.37104 0.0295,-0.35166 0.45052,0.0293 0.49927,0.45184 0.52275,0.44336 0.69727,-0.25197 0.12193,-0.4858 0.0615,-0.79792 -0.18594,-0.96077 -0.3009,-0.19801 -0.27666,-0.30985 0.13531,-0.62448 0.27602,-0.21079 0.65494,-0.29759 0.84204,-0.19288 0.46474,0.26008 1.62713,1.88088 1.98586,2.76902 0.17407,0.43097 0.49637,0.7276 0.79056,0.7276 0.416,0 0.46959,0.13537 0.32998,0.83346 -0.12645,0.63223 -0.0502,0.91864 0.31586,1.1863 0.4664,0.34104 0.46579,0.38733 -0.0182,1.38243 -0.61013,1.25437 -1.0494,1.29003 -3.02126,0.24525 z m 50.79314,-1.1873 c 0,-0.27726 -0.14214,-0.34157 -0.46302,-0.20947 -1.09623,0.4513 -1.38906,0.45415 -1.38906,0.0135 0,-0.24384 -0.11084,-0.37484 -0.2463,-0.29112 -0.35319,0.21828 -0.55239,-0.21407 -0.29242,-0.6347 0.2884,-0.46664 2.13611,-1.10035 2.69804,-0.92535 0.49212,0.15327 1.75145,1.69621 1.7063,2.09057 -0.016,0.14006 -0.47565,0.27759 -1.02135,0.30564 -0.73159,0.0376 -0.99219,-0.0541 -0.99219,-0.34909 z m -21.43125,-2.31223 c 0,-0.22687 0.11906,-0.41249 0.26458,-0.41249 0.14552,0 0.26459,0.11203 0.26459,0.24896 0,0.13694 -0.11907,0.32256 -0.26459,0.4125 -0.14552,0.0899 -0.26458,-0.0221 -0.26458,-0.24897 z m 10.05417,0.11667 c 0,-0.14552 0.11906,-0.26458 0.26458,-0.26458 0.14552,0 0.26458,0.11906 0.26458,0.26458 0,0.14552 -0.11906,0.26459 -0.26458,0.26459 -0.14552,0 -0.26458,-0.11907 -0.26458,-0.26459 z m -16.13959,-0.24896 c 0,-0.13694 0.11907,-0.32256 0.26459,-0.41249 0.14552,-0.0899 0.26458,0.0221 0.26458,0.24896 0,0.22687 -0.11906,0.41249 -0.26458,0.41249 -0.14552,0 -0.26459,-0.11203 -0.26459,-0.24896 z m 4.79034,-0.11438 c -0.40231,-0.48475 -0.0918,-1.22416 0.51402,-1.22416 0.66071,0 0.86321,0.41047 0.5194,1.05287 -0.33529,0.6265 -0.61689,0.67318 -1.03342,0.17129 z m 3.41175,-0.69499 c 0,-0.14552 0.12609,-0.26458 0.2802,-0.26458 0.15411,0 0.20661,0.11906 0.11667,0.26458 -0.0899,0.14552 -0.21602,0.26458 -0.2802,0.26458 -0.0642,0 -0.11667,-0.11906 -0.11667,-0.26458 z m 3.57187,0 c 0.0899,-0.14552 0.21603,-0.26458 0.2802,-0.26458 0.0642,0 0.11668,0.11906 0.11668,0.26458 0,0.14552 -0.12609,0.26458 -0.2802,0.26458 -0.15411,0 -0.20661,-0.11906 -0.11668,-0.26458 z M 99.5849,204.00702 c -0.36618,-0.36618 -0.11204,-1.06371 0.50855,-1.39584 0.83005,-0.44424 1.48106,0.004 1.03436,0.71213 -0.30532,0.48402 -1.30126,0.92536 -1.54291,0.68371 z m 8.31612,-0.84877 c -0.56134,-0.43134 -0.61744,-0.6051 -0.39688,-1.22926 0.34131,-0.96584 0.91833,-1.14497 0.91833,-0.28509 0,0.3638 -0.14014,0.70817 -0.31142,0.76527 -0.17129,0.0571 -0.22701,0.24041 -0.12382,0.40737 0.10318,0.16695 0.37511,0.2316 0.60427,0.14367 0.30076,-0.11542 0.37932,-0.39009 0.28238,-0.9874 -0.0794,-0.48955 0.016,-1.03296 0.23359,-1.33059 0.452,-0.61815 0.86436,-0.30361 0.45703,0.34862 -0.16123,0.25818 -0.23214,0.78854 -0.15757,1.17859 0.0816,0.42671 0.0179,0.70919 -0.15986,0.70919 -0.16249,0 -0.29543,0.1786 -0.29543,0.39688 0,0.52172 -0.25631,0.49312 -1.05062,-0.11725 z m 1.97666,0.24954 c -0.19293,-0.31217 0.0573,-0.79375 0.41249,-0.79375 0.13694,0 0.24897,0.23813 0.24897,0.52917 0,0.55802 -0.38494,0.712 -0.66146,0.26458 z m 0.92604,-0.66146 c 0,-0.21828 0.17486,-0.39687 0.38858,-0.39687 0.23669,0 0.32904,0.15512 0.23627,0.39687 -0.0838,0.21828 -0.25862,0.39688 -0.38857,0.39688 -0.12995,0 -0.23628,-0.1786 -0.23628,-0.39688 z m 22.95261,0.18874 c -0.85981,-0.10824 -0.98463,-0.58561 -0.15312,-0.58561 0.31596,0 0.79221,-0.19705 1.05833,-0.43789 0.45367,-0.41056 0.48385,-0.40433 0.48385,0.0999 0,0.70844 -0.49319,1.03637 -1.38906,0.9236 z m -27.71511,-0.87888 c 0,-0.1807 -0.25389,-0.22954 -0.66145,-0.12725 -0.44722,0.11224 -0.66146,0.0565 -0.66146,-0.17226 0,-0.47388 0.98645,-1.06049 1.20062,-0.71396 0.0918,0.14846 0.38083,0.20201 0.64239,0.11899 0.56575,-0.17956 0.89802,0.45754 0.46465,0.89092 -0.38137,0.38137 -0.98475,0.38355 -0.98475,0.004 z m 6.62047,0.11423 c 0.003,-0.11981 0.24526,-0.51549 0.53783,-0.8793 l 0.53195,-0.66145 -0.0748,0.79148 c -0.0478,0.50561 -0.24205,0.82321 -0.53783,0.8793 -0.25467,0.0483 -0.46038,-0.0102 -0.45714,-0.13003 z m -11.38297,-0.60541 c 0,-0.4023 0.9178,-0.78885 1.30493,-0.54959 0.1927,0.1191 0.26856,0.34891 0.16856,0.51071 -0.22277,0.36045 -1.47349,0.39346 -1.47349,0.0389 z m 36.11563,-0.27389 c -0.0899,-0.14552 0.0151,-0.26458 0.23336,-0.26458 0.21828,0 0.47046,0.11906 0.56039,0.26458 0.0899,0.14552 -0.0151,0.26459 -0.23335,0.26459 -0.21828,0 -0.47046,-0.11907 -0.5604,-0.26459 z m -32.94063,-0.79375 c 0,-0.14552 0.11907,-0.26458 0.26459,-0.26458 0.14552,0 0.26458,0.11906 0.26458,0.26458 0,0.14552 -0.11906,0.26459 -0.26458,0.26459 -0.14552,0 -0.26459,-0.11907 -0.26459,-0.26459 z m 7.20135,-0.57004 c 0.0652,-0.1958 0.33075,-0.39714 0.59011,-0.44741 0.30163,-0.0585 0.42885,0.0369 0.35303,0.26458 -0.0652,0.1958 -0.33075,0.39714 -0.59011,0.44741 -0.30163,0.0585 -0.42885,-0.0369 -0.35303,-0.26458 z m -3.96571,-0.27332 c 0.16353,-0.49059 0.73311,-0.57196 0.73311,-0.10473 0,0.23041 -0.18851,0.41893 -0.41892,0.41893 -0.23041,0 -0.37179,-0.14139 -0.31419,-0.3142 z m 1.26228,-0.0827 c 0,-0.21828 0.11906,-0.39687 0.26458,-0.39687 0.14552,0 0.26459,0.17859 0.26459,0.39687 0,0.21828 -0.11907,0.39688 -0.26459,0.39688 -0.14552,0 -0.26458,-0.1786 -0.26458,-0.39688 z m -18.2068,-0.85989 c 0.0485,-0.25467 0.36419,-0.50229 0.70146,-0.55027 0.54638,-0.0777 0.58111,-0.0273 0.31872,0.46302 -0.36145,0.67537 -1.14505,0.74239 -1.02018,0.0872 z m 15.1906,0.24132 c -0.17746,-0.28713 0.42411,-0.57205 1.20781,-0.57205 0.30519,0 0.48356,0.14013 0.42097,0.33073 -0.13225,0.40276 -1.41184,0.59234 -1.62878,0.24132 z m 2.2265,-0.77049 c 0.008,-0.40628 0.49639,-0.95694 0.90083,-1.0163 0.28239,-0.0414 0.41804,0.14569 0.41804,0.57669 0,0.50419 -0.13877,0.63805 -0.66146,0.63805 -0.3638,0 -0.65964,-0.0893 -0.65741,-0.19844 z m 24.90767,-0.18194 c 0.0503,-0.24273 0.21047,-0.43503 0.35599,-0.42735 0.39272,0.0207 0.32057,0.61268 -0.0914,0.75 -0.22255,0.0742 -0.32173,-0.0468 -0.26458,-0.32265 z m -46.75073,-0.69556 c -0.18265,-0.29554 0.58906,-1.01782 1.10297,-1.03232 0.16408,-0.005 0.45408,0.17926 0.64444,0.40863 0.28684,0.34562 0.28107,0.4582 -0.0337,0.65741 -0.52002,0.32905 -1.50138,0.30974 -1.71366,-0.0337 z m 8.87443,0.002 c 0,-0.15411 0.11906,-0.20662 0.26458,-0.11668 0.14552,0.0899 0.26458,0.21603 0.26458,0.2802 0,0.0642 -0.11906,0.11668 -0.26458,0.11668 -0.14552,0 -0.26458,-0.12609 -0.26458,-0.2802 z m -3.43959,-0.36811 c 0,-0.21105 0.20836,-0.51122 0.46302,-0.66703 0.36477,-0.22319 0.19817,-0.27094 -0.78514,-0.22503 -0.68649,0.032 -1.33141,-0.025 -1.43316,-0.12672 -0.10175,-0.10175 0.4004,-0.20732 1.11587,-0.23461 2.27449,-0.0868 2.60813,-0.11662 3.35139,-0.30002 1.6253,-0.40103 2.0881,-0.45438 1.94591,-0.22431 -0.0819,0.13256 -0.49905,0.31103 -0.92693,0.39661 -0.48338,0.0967 -0.84709,0.37333 -0.96048,0.73059 -0.11443,0.36054 -0.25135,0.46358 -0.36712,0.27626 -0.13573,-0.21962 -0.37276,-0.21136 -0.89505,0.0312 -0.39074,0.18146 -0.71136,0.41922 -0.71249,0.52836 -10e-4,0.10914 -0.18066,0.19843 -0.39894,0.19843 -0.21828,0 -0.39688,-0.17267 -0.39688,-0.38372 z m 44.41984,0.12859 c -0.19362,-0.90971 -0.15851,-1.58126 0.0751,-1.43687 0.15333,0.0948 0.38271,0.008 0.50973,-0.19233 0.18266,-0.28838 0.2318,-0.2678 0.23501,0.0984 0.002,0.25466 0.17144,0.46302 0.37603,0.46302 0.29433,0 0.31241,0.12624 0.0866,0.60476 -0.24706,0.52352 -1.19664,0.86635 -1.28248,0.46302 z m -59.76567,-2.19476 c 0,-0.18328 0.25216,-0.49071 0.56036,-0.68319 0.64932,-0.4055 1.1914,-0.0578 0.93828,0.60176 -0.1888,0.492 -1.49864,0.56317 -1.49864,0.0814 z m 3.96875,0.0969 c 0,-0.16109 0.1078,-0.29289 0.23955,-0.29289 0.13175,0 0.73833,-0.41672 1.34795,-0.92604 0.60962,-0.50932 1.32074,-0.92604 1.58026,-0.92604 0.25952,0 0.63521,-0.23742 0.83486,-0.5276 0.52941,-0.76946 0.96311,-0.30436 0.8198,0.87913 -0.11048,0.91232 -0.18498,0.99736 -0.74956,0.85566 -0.34478,-0.0865 -0.83668,-0.0523 -1.0931,0.076 -0.25642,0.12834 -0.82341,0.35373 -1.25997,0.50086 -0.43656,0.14712 -1.00211,0.35442 -1.25677,0.46065 -0.27844,0.11615 -0.46302,0.0764 -0.46302,-0.0998 z m 3.70417,-0.1606 c 0.18115,-0.21828 0.50797,-0.39687 0.72625,-0.39687 0.32278,0 0.33538,0.0741 0.0675,0.39687 -0.18116,0.21828 -0.50797,0.39688 -0.72625,0.39688 -0.32278,0 -0.33538,-0.0741 -0.0675,-0.39688 z m -7.95839,-1.12448 c -0.0125,-0.2766 -0.0746,-0.32986 -0.15434,-0.13229 -0.0734,0.1819 -0.54399,0.33073 -1.045752,0.33073 -1.140105,0 -1.497219,-0.67478 -0.699128,-1.32104 0.379558,-0.30735 0.476239,-0.56042 0.312756,-0.81868 -0.167037,-0.26388 -0.237822,-0.27655 -0.240682,-0.0431 -0.0022,0.1819 -0.186482,0.33073 -0.409453,0.33073 -0.44904,0 -0.946332,-1.03948 -0.696176,-1.45521 0.08756,-0.14552 0.126593,-0.51723 0.08673,-0.82603 -0.04055,-0.31408 0.106798,-0.63023 0.334432,-0.71758 0.22593,-0.0867 0.340317,-0.32969 0.257183,-0.54633 -0.08235,-0.21461 -0.309164,-0.32901 -0.504031,-0.25423 -0.419797,0.16109 -1.453987,-0.34239 -1.453987,-0.70785 0,-0.1404 0.238125,-0.25527 0.529167,-0.25527 0.291041,0 0.529166,-0.11906 0.529166,-0.26459 0,-0.14552 -0.107915,-0.26458 -0.239813,-0.26458 -0.446669,0 0.02061,-1.00848 0.528859,-1.14139 0.513769,-0.13436 0.704734,-1.085 0.271713,-1.35263 -0.128145,-0.0792 -0.292154,-0.45348 -0.364464,-0.83174 -0.104049,-0.5443 -0.04003,-0.66384 0.30695,-0.5731 0.241133,0.0631 0.587099,-0.0445 0.768815,-0.23904 0.474102,-0.50753 1.626585,-0.7422 1.968055,-0.40074 0.21106,0.21107 0.21141,0.46552 10e-4,0.92675 -0.24325,0.53387 -0.21979,0.63046 0.14631,0.60249 0.23981,-0.0183 0.4407,0.0858 0.44644,0.23128 0.006,0.14552 0.11135,0.42378 0.23468,0.61836 0.13312,0.21001 0.10012,0.47792 -0.0812,0.65925 -0.23089,0.23089 -0.36014,0.21699 -0.52944,-0.057 -0.1232,-0.19933 -0.35636,-0.2806 -0.51815,-0.18061 -0.48634,0.30057 -0.33463,0.61222 0.38609,0.7931 0.86732,0.21769 0.69756,0.7627 -0.30521,0.97981 l -0.771932,0.16714 0.711992,0.0313 c 0.39159,0.0172 0.78557,-0.0878 0.87551,-0.23328 0.25723,-0.41621 1.37272,-0.30928 1.86033,0.17834 0.30981,0.30981 0.40024,0.70592 0.3009,1.31807 -0.14666,0.90375 0.18006,1.45076 0.44857,0.75103 0.0834,-0.21744 0.25686,-0.39536 0.38536,-0.39536 0.42749,0 2.01005,1.68299 1.68458,1.79148 -0.51828,0.17276 -0.36113,1.33974 0.22246,1.65207 0.70251,0.37598 0.45181,0.75361 -0.39308,0.5921 -1.06518,-0.20362 -1.9926,0.15539 -2.2672,0.87765 l -0.2529,0.66519 -0.98978,-0.67258 c -1.24065,-0.84304 -1.49682,-0.84525 -1.28747,-0.0111 0.0957,0.38143 0.0519,0.66146 -0.10361,0.66146 -0.14829,0 -0.27902,-0.20836 -0.29051,-0.46302 z m -1.566614,-9.70782 c 0,-0.0642 -0.119063,-0.19026 -0.264584,-0.2802 -0.145521,-0.0899 -0.264583,-0.0374 -0.264583,0.11668 0,0.15411 0.119062,0.2802 0.264583,0.2802 0.145521,0 0.264584,-0.0525 0.264584,-0.11668 z m 20.233984,9.63094 c -0.10354,-0.16754 0.002,-0.49447 0.23362,-0.72651 0.47547,-0.47547 0.60886,-0.41585 0.74006,0.33078 0.10229,0.58216 -0.66558,0.89424 -0.97368,0.39573 z m 42.65417,-1.21847 c -0.34504,-0.34505 -0.18031,-0.62288 0.36932,-0.62288 0.3079,0 0.50498,0.13869 0.44648,0.3142 -0.12888,0.38664 -0.57067,0.55381 -0.8158,0.30868 z m -46.48399,-3.93017 c 0,-0.21828 0.11907,-0.39687 0.26459,-0.39687 0.14552,0 0.26458,0.17859 0.26458,0.39687 0,0.21828 -0.11906,0.39688 -0.26458,0.39688 -0.14552,0 -0.26459,-0.1786 -0.26459,-0.39688 z m -2.08907,-2.2263 c -0.50334,-0.31871 -0.16651,-1.08099 0.47765,-1.08099 0.59827,0 1.06881,0.57775 0.59829,0.73459 -0.1722,0.0574 -0.24578,0.21325 -0.16353,0.34634 0.19023,0.3078 -0.42634,0.30783 -0.91241,6e-5 z m 48.91502,-0.16134 c -0.279,-0.33618 -0.20735,-0.53305 0.43063,-1.18328 0.96836,-0.98696 1.42676,-1.00427 1.42676,-0.0539 0,0.40746 0.12944,0.87027 0.28764,1.02847 0.20713,0.20713 0.19885,0.34251 -0.0296,0.48369 -0.17447,0.10783 -0.41802,0.033 -0.54121,-0.16636 -0.17838,-0.28863 -0.29086,-0.29554 -0.5525,-0.0339 -0.42804,0.42805 -0.61586,0.4143 -1.02174,-0.0748 z m -59.26136,-0.37487 c 0,-0.13693 0.11906,-0.32255 0.26458,-0.41249 0.14552,-0.0899 0.26458,0.0221 0.26458,0.24897 0,0.22687 -0.11906,0.41249 -0.26458,0.41249 -0.14552,0 -0.26458,-0.11203 -0.26458,-0.24897 z m 61.47219,-0.43027 c -0.22327,-0.58183 0.38268,-1.16502 0.69143,-0.66546 0.2588,0.41875 0.0826,1.08012 -0.28773,1.08012 -0.13452,0 -0.31618,-0.1866 -0.4037,-0.41466 z m -58.80368,-1.80697 c -0.24888,-0.29988 -0.19602,-0.45811 0.25966,-0.77728 0.60487,-0.42367 1.30791,-0.32481 1.30111,0.18294 -0.011,0.81976 -1.04644,1.21406 -1.56077,0.59434 z m 56.59816,-0.10162 c 0,-0.31419 1.56512,-0.83742 1.72605,-0.57703 0.16353,0.26459 -0.70533,0.78361 -1.31178,0.78361 -0.22785,0 -0.41427,-0.093 -0.41427,-0.20658 z m -60.96452,-0.28708 c -0.11397,-0.18441 -0.13577,-0.40675 -0.0484,-0.49408 0.23679,-0.23679 0.49498,0.11147 0.36708,0.49515 -0.0896,0.26886 -0.15194,0.26866 -0.31864,-0.001 z m -4.916738,-0.9395 c 0,-0.20615 -0.142588,-0.42235 -0.316863,-0.48045 -0.450446,-0.15014 0.232078,-1.72656 0.902992,-2.08562 0.723335,-0.38712 1.432747,-0.0924 1.008392,0.4189 -0.174438,0.21018 -0.249311,0.49193 -0.166385,0.62611 0.08293,0.13418 -0.20448,0.31501 -0.63868,0.40185 -0.723811,0.14476 -1.140183,0.70029 -0.524873,0.70029 0.145521,0 0.264584,0.17859 0.264584,0.39687 0,0.21828 -0.119063,0.39688 -0.264584,0.39688 -0.14552,0 -0.264583,-0.16867 -0.264583,-0.37483 z m 2.748664,-0.79717 c -0.168135,-0.43815 0.304309,-1.20925 0.740894,-1.20925 0.36712,0 0.13962,1.39558 -0.248273,1.52295 -0.181824,0.0597 -0.403504,-0.0815 -0.492621,-0.3137 z m 4.395084,-0.4155 c 0,-0.14552 0.12609,-0.26459 0.2802,-0.26459 0.15411,0 0.20661,0.11907 0.11668,0.26459 -0.0899,0.14552 -0.21603,0.26458 -0.2802,0.26458 -0.0642,0 -0.11668,-0.11906 -0.11668,-0.26458 z m 58.10566,-0.90781 c 0.18846,-0.49112 1.25724,-0.57339 1.09619,-0.0844 -0.0599,0.1819 -0.36689,0.3687 -0.68219,0.41511 -0.42899,0.0631 -0.53319,-0.0201 -0.414,-0.33073 z m -59.42857,-0.25451 c 0,-0.38449 0.63892,-0.7564 0.88194,-0.51338 0.077,0.077 0.0759,0.30689 -0.002,0.51094 -0.18447,0.4807 -0.87951,0.48263 -0.87951,0.002 z m 1.4552,0.10398 c 0.0899,-0.14552 0.27556,-0.26458 0.41249,-0.26458 0.13694,0 0.24897,0.11906 0.24897,0.26458 0,0.14553 -0.18562,0.26459 -0.41249,0.26459 -0.22687,0 -0.3389,-0.11906 -0.24897,-0.26459 z m 58.60522,-1.15014 c 0,-0.25623 1.08294,-1.2947 1.21374,-1.16389 0.25142,0.25142 -0.40933,1.2557 -0.82618,1.2557 -0.21316,0 -0.38756,-0.0413 -0.38756,-0.0918 z m -63.381123,-1.1204 c 0.147587,-0.78671 0.07732,-1.06112 -0.381036,-1.48814 -1.293106,-1.20471 0.140294,-2.42023 2.145569,-1.81944 0.8204,0.2458 1.027,0.43483 1.027,0.93964 0,0.34756 -0.16575,0.79769 -0.36834,1.00028 -0.20259,0.20258 -0.41802,0.59804 -0.47873,0.87879 -0.0607,0.28075 -0.25216,0.48069 -0.42542,0.44431 -0.17325,-0.0364 -0.31501,0.0338 -0.31501,0.15597 0,0.12216 -0.31162,0.3641 -0.692494,0.53763 -0.691252,0.31496 -0.692168,0.3138 -0.511539,-0.64904 z m 11.258203,0.55075 c 0,-0.21828 -0.19318,-0.39687 -0.42928,-0.39687 -0.33396,0 -0.36232,-0.0807 -0.12772,-0.36334 0.16585,-0.19984 0.23311,-0.54167 0.14947,-0.75964 -0.0836,-0.21796 0.0132,-0.56153 0.21513,-0.7635 0.20197,-0.20196 0.32159,-0.50406 0.26584,-0.67133 -0.17078,-0.51233 0.33787,-0.61727 0.94177,-0.19428 0.70472,0.49361 0.75605,1.6979 0.11837,2.77741 -0.48315,0.81791 -1.13358,1.0311 -1.13358,0.37155 z m 2.38125,-2.26457 c 0,-0.15411 0.11906,-0.20661 0.26458,-0.11668 0.14552,0.0899 0.26458,0.21603 0.26458,0.2802 0,0.0642 -0.11906,0.11668 -0.26458,0.11668 -0.14552,0 -0.26458,-0.12609 -0.26458,-0.2802 z m 0.52916,-1.42447 c 0,-0.20996 -0.26316,-0.82778 -0.5848,-1.37292 -0.32164,-0.54514 -0.45318,-0.90981 -0.29231,-0.81039 0.16088,0.0994 0.37335,-0.0269 0.47217,-0.28073 0.1618,-0.4156 0.23035,-0.39938 0.68918,0.16312 0.61315,0.75168 0.65936,1.35975 0.10333,1.35975 -0.31959,0 -0.3478,0.1091 -0.13229,0.51178 0.34251,0.63999 0.34447,0.81114 0.009,0.81114 -0.14552,0 -0.26459,-0.17179 -0.26459,-0.38175 z m -10.31875,-0.94522 c -0.35277,-0.23158 -0.35277,-0.28948 0,-0.52106 0.48535,-0.31861 0.56609,-0.32094 1.02609,-0.0296 0.40212,0.2547 0.18369,0.82163 -0.3141,0.81523 -0.17331,-0.002 -0.49371,-0.12129 -0.71199,-0.26459 z m 11.62164,-2.80693 c -0.60014,-0.64964 -0.60603,-0.68348 -0.0914,-0.52572 0.48738,0.1494 0.53668,0.0778 0.43299,-0.6286 -0.15433,-1.05152 0.46274,-1.06801 1.07664,-0.0288 0.55369,0.93732 0.55391,0.94587 0.0382,1.46163 -0.55918,0.55919 -0.70887,0.53056 -1.45633,-0.27854 z M 88.38029,163.76 c -0.25467,-0.26918 -0.65787,-0.731 -0.896,-1.02628 -0.23814,-0.29527 -0.58698,-0.5882 -0.77521,-0.65094 -0.55209,-0.18403 -0.063,-1.00739 0.60457,-1.01776 0.33199,-0.005 0.89826,-0.17249 1.25838,-0.37185 l 0.65477,-0.36248 -0.91935,-0.40031 -0.91935,-0.40031 1.04276,-0.0216 c 0.96685,-0.02 1.0054,-0.0489 0.52958,-0.39683 -0.28225,-0.20638 -0.42788,-0.46053 -0.32364,-0.56478 0.26305,-0.26305 1.72448,0.37721 1.89898,0.83195 0.0786,0.20496 0.39289,0.37265 0.6983,0.37265 0.42776,0 0.51816,0.11703 0.39358,0.50953 -0.10536,0.33198 0.004,0.61392 0.3129,0.80911 0.33738,0.21295 0.37899,0.33977 0.14389,0.43856 -0.45629,0.19175 -0.41545,0.79951 0.0661,0.98432 0.66496,0.25517 0.44888,0.66079 -0.65092,1.22186 -1.30627,0.66641 -2.51506,0.6839 -3.11939,0.0451 z m 37.42368,0.0556 c -0.27585,-0.27586 0.0735,-0.62456 0.62579,-0.62456 0.28245,0 0.51355,0.1786 0.51355,0.39688 0,0.39244 -0.81226,0.55476 -1.13934,0.22768 z m -19.08239,-0.5111 c -0.57485,-0.57485 -0.5201,-1.06865 0.17227,-1.5536 1.23987,-0.86844 2.08856,-0.0977 1.43766,1.30568 -0.34952,0.75359 -1.00354,0.85431 -1.60993,0.24792 z m -4.38452,-0.77485 c 0,-0.21828 -0.0999,-0.39688 -0.22212,-0.39688 -0.12216,0 -0.36375,-0.31087 -0.53687,-0.69083 -0.24726,-0.54267 -0.45632,-0.66376 -0.97483,-0.56465 -0.86533,0.16542 -1.05899,-0.20058 -0.53185,-1.00511 0.23418,-0.3574 0.30672,-0.64982 0.1612,-0.64982 -0.39087,0 -1.14377,1.25494 -0.94543,1.57586 0.0939,0.15192 0.0366,0.27622 -0.12732,0.27622 -0.18199,0 -0.22963,0.2155 -0.12236,0.55349 0.13969,0.44009 0.0762,0.53433 -0.30986,0.45998 -0.73882,-0.14228 -0.72447,-0.84177 0.0404,-1.96885 0.39211,-0.57779 0.56955,-1.05869 0.41023,-1.1118 -0.37841,-0.12614 -0.35612,-0.92663 0.0367,-1.31949 0.44147,-0.44147 1.00542,-0.39694 1.00542,0.0794 0,0.46942 0.41838,0.52561 0.68626,0.0922 0.10358,-0.16759 -0.008,-0.44861 -0.24896,-0.62448 -0.59911,-0.43807 -0.55819,-0.54402 0.35645,-0.92288 0.43656,-0.18083 0.79375,-0.49293 0.79375,-0.69356 0,-0.20062 0.17859,-0.36477 0.39687,-0.36477 0.21828,0 0.39688,0.17859 0.39688,0.39687 0,0.42825 0.24224,0.49037 0.91115,0.23369 0.32655,-0.12531 0.35561,-0.24713 0.12518,-0.52478 -0.23687,-0.28541 -0.15105,-0.41826 0.40734,-0.63056 0.8809,-0.33492 0.93758,-0.33424 0.93758,0.0112 0,0.15411 -0.10659,0.21432 -0.23686,0.13381 -0.20987,-0.12971 -0.67899,0.61528 -0.49697,0.78923 0.176,0.1682 1.6869,0.21596 1.93725,0.0612 0.38795,-0.23977 1.01969,0.20131 0.79924,0.55802 -0.10253,0.16589 -0.009,0.29416 0.21507,0.29416 0.7569,0 0.75633,0.59102 -10e-4,1.23181 l -0.76134,0.64402 0.88439,-0.17056 c 0.76399,-0.14735 0.8716,-0.10394 0.79052,0.31885 -0.0538,0.28038 -0.47456,0.61292 -0.98516,0.77856 -0.686,0.22252 -0.78805,0.32875 -0.44303,0.46115 0.86342,0.33132 0.11419,0.77192 -1.04294,0.61332 -0.89538,-0.12273 -1.21539,-0.0523 -1.57697,0.34729 -0.43242,0.47782 -0.42775,0.49449 0.0999,0.35651 0.39294,-0.10279 0.55339,-0.0208 0.55339,0.28299 0,0.23525 -0.10518,0.42773 -0.23372,0.42773 -0.12855,0 -0.296,0.23812 -0.37211,0.52917 -0.17201,0.65776 -1.77542,0.77724 -1.77542,0.13229 z m -0.39688,-3.30729 c 0.0944,-0.1527 -0.15078,-0.26287 -0.57969,-0.26054 -0.57709,0.003 -0.65451,0.0614 -0.34635,0.26054 0.50834,0.32851 0.72301,0.32851 0.92604,0 z m 6.23267,0.80299 c -0.44735,-0.27648 -0.17049,-1.06758 0.37361,-1.06758 0.22468,0 0.40518,0.22877 0.40518,0.51355 0,0.63012 -0.30482,0.84696 -0.77879,0.55403 z m -0.54413,-4.24258 c 0,-0.14552 0.12609,-0.26458 0.2802,-0.26458 0.15411,0 0.20662,0.11906 0.11668,0.26458 -0.0899,0.14552 -0.21603,0.26459 -0.2802,0.26459 -0.0642,0 -0.11668,-0.11907 -0.11668,-0.26459 z m -2.02098,-0.92604 c 0.0838,-0.21828 0.037,-0.39687 -0.10399,-0.39687 -0.14095,0 -0.25628,-0.16586 -0.25628,-0.36857 0,-0.44033 0.71377,-0.76866 0.92567,-0.4258 0.21417,0.34655 -0.14036,1.58812 -0.45349,1.58812 -0.14532,0 -0.19568,-0.1786 -0.11191,-0.39688 z m 1.07093,0.0328 c -0.22416,-0.58415 0.0741,-0.88237 0.47821,-0.47821 0.23863,0.23863 0.23965,0.38653 0.004,0.62191 -0.23537,0.23538 -0.35012,0.20121 -0.48247,-0.1437 z M 95.0599,154.7226 c -0.0906,-0.14651 0.0891,-0.62276 0.39928,-1.05833 0.46702,-0.65588 0.49263,-0.79194 0.14902,-0.79194 -0.2385,0 -0.41489,-0.22498 -0.41489,-0.52917 0,-0.55803 0.38493,-0.712 0.66146,-0.26458 0.2961,0.4791 0.70063,0.27567 0.52875,-0.26589 -0.20434,-0.64382 0.59222,-1.06866 0.94214,-0.50248 0.1759,0.28461 0.29787,0.29606 0.543,0.0509 0.21943,-0.21944 0.4656,-0.23615 0.80476,-0.0546 0.26875,0.14383 0.48937,0.16802 0.49027,0.0538 7.9e-4,-0.11426 0.18663,0.14705 0.41275,0.58071 0.26527,0.50872 0.31162,0.82162 0.13066,0.88194 -0.35599,0.11867 -0.36964,0.84314 -0.0159,0.84314 0.50439,0 0.25702,0.39847 -0.45168,0.72761 -0.93654,0.43494 -1.4004,0.4182 -1.4004,-0.0505 0,-0.2097 -0.13746,-0.46622 -0.30546,-0.57005 -0.18232,-0.11268 -0.23391,-0.073 -0.12798,0.0984 0.0976,0.15795 0.069,0.35425 -0.0637,0.43623 -0.13265,0.082 -0.30945,-0.0289 -0.39289,-0.2463 -0.22982,-0.5989 -0.6806,-0.47422 -0.96207,0.26611 -0.26187,0.68877 -0.64479,0.85193 -0.92715,0.39507 z m 13.09799,-0.41068 c 0,-0.22687 0.12101,-0.33771 0.2689,-0.2463 0.14789,0.0914 0.2004,0.27702 0.11668,0.41249 -0.22681,0.36699 -0.38558,0.29856 -0.38558,-0.16619 z m -4.7625,-0.35295 c 0,-0.27548 0.16545,-0.56435 0.36767,-0.64195 0.25656,-0.0984 0.35651,0.0529 0.33073,0.50067 -0.0432,0.74984 -0.6984,0.88238 -0.6984,0.14128 z"
       id="path826"
       inkscape:connector-curvature="0" />
  </g>
</svg>
